<svg xmlns="http://www.w3.org/2000/svg" width="159.699" height="37" viewBox="0 0 159.699 37">
    <defs>
        <style>.a{fill:#fff;}.b{fill:none;}</style>
    </defs>
    <path class="a" d="M461.6,334.142l-1.378-8.724-5.172,8.1-5.148-8.1-1.378,8.724h-2.151l2.127-14.476,6.549,9.957,6.549-9.957,2.127,14.476Zm6.018-7.25a7.372,7.372,0,1,0,7.347-7.468,7.35,7.35,0,0,0-7.347,7.468m12.567,0a5.2,5.2,0,1,1-5.22-5.438,5.294,5.294,0,0,1,5.22,5.438m7.25,7.25h8.024V332.16h-5.848V319.593h-2.175Zm11.383-4.229c0,2.344,2.078,4.423,5.172,4.423,2.924,0,4.93-1.933,4.93-4.35,0-2.127-1.547-3.456-3.988-4.084l-1.837-.459c-1.837-.459-1.982-1.426-1.982-1.909a2.617,2.617,0,0,1,5.172.145h2.151c0-2.634-2.054-4.278-4.664-4.278-2.586,0-4.833,1.619-4.833,4.181,0,1.208.508,3.045,3.6,3.818l1.861.459c1.184.314,2.344.918,2.344,2.223,0,1.208-1.015,2.248-2.755,2.248a2.8,2.8,0,0,1-3.021-2.441h-2.151m14.138-3a7.372,7.372,0,1,0,7.347-7.468,7.35,7.35,0,0,0-7.347,7.468m12.567,0a5.2,5.2,0,1,1-5.22-5.438,5.294,5.294,0,0,1,5.22,5.438m16.772-7.25V328.7l-9.522-9.063v14.476h2.175v-9.377l9.522,9.377V319.642ZM446.3,347.361a7.39,7.39,0,0,0,7.4,7.444,7.184,7.184,0,0,0,5.607-2.61l-1.6-1.281a5.122,5.122,0,0,1-3.963,1.885,5.441,5.441,0,0,1,0-10.875,5.047,5.047,0,0,1,3.963,1.885l1.6-1.281a7.112,7.112,0,0,0-5.607-2.61,7.406,7.406,0,0,0-7.4,7.443m17.062,0a7.372,7.372,0,1,0,7.347-7.468,7.349,7.349,0,0,0-7.347,7.468m12.567,0a5.2,5.2,0,1,1-5.22-5.438,5.294,5.294,0,0,1,5.22,5.438m5.752,0a7.372,7.372,0,1,0,7.347-7.468,7.349,7.349,0,0,0-7.347,7.468m12.567,0a5.2,5.2,0,1,1-5.22-5.438,5.294,5.294,0,0,1,5.22,5.438m14.79,7.25h2.586l-3.867-5.462a4.162,4.162,0,0,0,3.746-4.471c0-2.3-1.281-4.592-4.471-4.592h-5.558v14.549h2.175V349.2h1.668Zm-5.389-12.567h3.359a2.344,2.344,0,0,1,2.32,2.61c0,1.547-.822,2.61-2.828,2.61h-2.852Zm12.18,8.338c0,2.344,2.078,4.423,5.172,4.423,2.924,0,4.93-1.933,4.93-4.35,0-2.127-1.547-3.456-3.988-4.084l-1.837-.459c-1.837-.459-1.982-1.426-1.982-1.909a2.617,2.617,0,0,1,5.172.145h2.151c0-2.634-2.054-4.278-4.664-4.278-2.586,0-4.833,1.619-4.833,4.181,0,1.208.508,3.045,3.6,3.818l1.861.459c1.184.314,2.344.918,2.344,2.223,0,1.208-1.015,2.248-2.755,2.248a2.8,2.8,0,0,1-3.021-2.441h-2.151m20.808-6.332a1.8,1.8,0,0,0-1.812-1.909,1.431,1.431,0,0,0-1.281.628v-2.538h-.773v5.679h.773v-.556a1.486,1.486,0,0,0,1.281.628,1.812,1.812,0,0,0,1.813-1.933m-.773,0a1.149,1.149,0,1,1-2.3,0,1.158,1.158,0,0,1,1.16-1.16,1.111,1.111,0,0,1,1.136,1.16m5.172.314c0-.121.024-.218.024-.338a1.776,1.776,0,0,0-1.837-1.885,1.922,1.922,0,0,0,0,3.843,1.886,1.886,0,0,0,1.692-.918l-.6-.314a1.162,1.162,0,0,1-1.039.508,1.031,1.031,0,0,1-1.136-.894h2.9m-2.924-.6a1.037,1.037,0,0,1,1.112-.894.994.994,0,0,1,1.063.894Zm6.211-1.523-1.063,2.683-1.063-2.683h-.822l1.523,3.673h.725l1.523-3.673Zm4.882,2.127c0-.121.024-.218.024-.338a1.776,1.776,0,0,0-1.837-1.885,1.922,1.922,0,0,0,0,3.843,1.886,1.886,0,0,0,1.692-.918l-.6-.314a1.162,1.162,0,0,1-1.039.508,1.031,1.031,0,0,1-1.136-.894h2.9m-2.9-.6a1.037,1.037,0,0,1,1.112-.894.994.994,0,0,1,1.063.894Zm6.259-1.474a1.416,1.416,0,0,0-.628-.145c-.483,0-.846.266-1.039.894v-.822h-.773v3.7h.773v-1.329c0-.991.314-1.692.991-1.692a1.191,1.191,0,0,1,.532.121l.145-.725m3.432-.048v.532a1.457,1.457,0,0,0-1.281-.628,1.912,1.912,0,0,0,0,3.818,1.443,1.443,0,0,0,1.257-.628v.556h.773V342.19H556Zm-.024,1.813a1.149,1.149,0,1,1-2.3,0,1.111,1.111,0,0,1,1.136-1.16,1.143,1.143,0,0,1,1.16,1.16m4.809-1.813v.532a1.468,1.468,0,0,0-1.281-.6,1.912,1.912,0,0,0,0,3.818,1.514,1.514,0,0,0,1.257-.6v.048c0,1.16-.483,1.6-1.257,1.6a1.172,1.172,0,0,1-1.039-.628l-.653.314A1.879,1.879,0,0,0,559.5,347.7c1.232,0,2.03-.677,2.03-2.393V342.19h-.749Zm-.024,1.813a1.148,1.148,0,1,1-2.3,0,1.111,1.111,0,0,1,1.136-1.16,1.143,1.143,0,0,1,1.16,1.16m5.413.314c0-.121.024-.218.024-.338a1.776,1.776,0,0,0-1.837-1.885,1.922,1.922,0,0,0,0,3.843,1.886,1.886,0,0,0,1.692-.918l-.6-.314a1.162,1.162,0,0,1-1.039.508,1.031,1.031,0,0,1-1.136-.894h2.9m-2.924-.6a1.037,1.037,0,0,1,1.112-.894.994.994,0,0,1,1.063.894Zm-30.475,9.039a1.9,1.9,0,0,0,1.982,1.909,1.8,1.8,0,0,0,1.426-.628l-.508-.483a1.232,1.232,0,0,1-2.127-.8,1.168,1.168,0,0,1,1.233-1.184,1.147,1.147,0,0,1,.894.387l.508-.483a1.8,1.8,0,0,0-1.426-.628,1.9,1.9,0,0,0-1.982,1.909m3.915,0a1.934,1.934,0,1,0,1.933-1.909,1.879,1.879,0,0,0-1.933,1.909m3.093,0a1.136,1.136,0,0,1-1.16,1.184,1.184,1.184,0,0,1,0-2.368,1.136,1.136,0,0,1,1.16,1.184m7.468-.266c0-1.039-.508-1.643-1.426-1.643a1.348,1.348,0,0,0-1.257.749,1.267,1.267,0,0,0-1.184-.749,1.223,1.223,0,0,0-1.16.653v-.58h-.773v3.673h.773v-1.958a.932.932,0,0,1,.967-1.039c.459,0,.773.338.773.943v2.054h.773v-2.1a.918.918,0,0,1,.918-.918c.507,0,.822.363.822.967v2.054h.773v-2.1m4.979.266a1.8,1.8,0,0,0-1.813-1.909,1.486,1.486,0,0,0-1.281.628v-.556h-.773V356.4h.773v-2.32a1.457,1.457,0,0,0,1.281.628,1.826,1.826,0,0,0,1.813-1.933m-.773.024a1.111,1.111,0,0,1-1.136,1.16,1.158,1.158,0,0,1-1.16-1.16,1.171,1.171,0,0,1,1.16-1.208,1.153,1.153,0,0,1,1.136,1.208M556,350.938v.532a1.457,1.457,0,0,0-1.281-.628,1.912,1.912,0,0,0,0,3.818,1.443,1.443,0,0,0,1.257-.628v.556h.773v-3.673H556Zm0,1.837a1.149,1.149,0,1,1-2.3,0,1.111,1.111,0,0,1,1.136-1.16,1.127,1.127,0,0,1,1.16,1.16m5.365-.266c0-1.039-.532-1.643-1.474-1.643a1.322,1.322,0,0,0-1.184.653v-.556h-.773v3.673h.773v-1.982a.989.989,0,0,1,1.063-1.039c.483,0,.822.338.822.943v2.054h.773v-2.1m3.5-1.571L563.8,353.5l-1.063-2.562h-.846l1.474,3.5-.8,1.933h.822l2.272-5.462h-.8Z" transform="translate(-406.495 -319.4)"/>
    <g transform="translate(0 0.066)">
        <path class="a" d="M284.3,429.124v0" transform="translate(-283.645 -402.655)"/>
        <path class="a" d="M284.3,429.124v0" transform="translate(-283.645 -402.655)"/>
        <path class="a" d="M301,320.744a14.021,14.021,0,0,0-18.319,7.589,14.283,14.283,0,0,0-1.088,4.978v12.639a8.586,8.586,0,0,0,.652,3.553,8.922,8.922,0,0,0,14.6,2.852h0l8.893-8.942h0a14.208,14.208,0,0,0,2.876-4.35A14.06,14.06,0,0,0,301,320.744m-2.9,25.4a12.678,12.678,0,0,1-7.323-.725,12.5,12.5,0,0,1-5.679-4.664,7.59,7.59,0,0,1,13,5.389m-4.688,6.96A7.6,7.6,0,0,1,283.479,349a7.456,7.456,0,0,1-.58-2.876,7.733,7.733,0,0,1,1.305-4.3,14.012,14.012,0,0,0,13.751,5.7,7.457,7.457,0,0,1-4.543,5.583m13.945-14.549a12.722,12.722,0,0,1-7.951,7.25,8.928,8.928,0,0,0-15.032-6.235,12.692,12.692,0,0,1,6.38-17.618,12.543,12.543,0,0,1,9.715,0,12.7,12.7,0,0,1,6.888,16.6" transform="translate(-281.592 -319.675)"/>
    </g>
    <path class="b" d="M311.529,342.632a12.722,12.722,0,0,1-7.951,7.25,8.928,8.928,0,0,0-15.032-6.235,12.692,12.692,0,0,1,6.38-17.618,12.543,12.543,0,0,1,9.715,0,12.7,12.7,0,0,1,6.888,16.6" transform="translate(-285.765 -323.685)"/>
    <path class="b" d="M309.1,405.172a12.678,12.678,0,0,1-7.323-.725,12.5,12.5,0,0,1-5.679-4.664,7.59,7.59,0,0,1,13,5.389" transform="translate(-292.594 -378.636)"/>
    <path class="b" d="M297.513,422.586a7.6,7.6,0,0,1-9.933-4.108A7.456,7.456,0,0,1,287,415.6a7.733,7.733,0,0,1,1.305-4.3,14.011,14.011,0,0,0,13.751,5.7,7.457,7.457,0,0,1-4.543,5.583" transform="translate(-285.693 -389.09)"/>
</svg>