<?xml version="1.0" standalone="no"?>
<!DOCTYPE svg PUBLIC "-//W3C//DTD SVG 1.1//EN" "http://www.w3.org/Graphics/SVG/1.1/DTD/svg11.dtd" >
<svg xmlns="http://www.w3.org/2000/svg">
<metadata>Generated by IcoMoon</metadata>
<defs>
<font id="icomoon" horiz-adv-x="1024">
<font-face units-per-em="1024" ascent="960" descent="-64" />
<missing-glyph horiz-adv-x="1024" />
<glyph unicode="&#x20;" horiz-adv-x="512" d="" />
<glyph unicode="&#xe900;" horiz-adv-x="1035" d="M757.333 581.333c0-209.132-169.535-378.667-378.667-378.667v0c-209.132 0-378.667 169.535-378.667 378.667v0c0 209.132 169.535 378.667 378.667 378.667v0c209.132 0 378.667-169.535 378.667-378.667v0z" />
<glyph unicode="&#xe901;" horiz-adv-x="1035" d="M768.952 222.293c-27.162 16.427-38.971 37.547-40.152 68.053 22.438 25.813 28.343 69.227 29.524 80.96 17.714 26.987 25.981 55.147 21.257 73.92 15.352 34.027 4.724 61.013-4.724 84.48-8.267 21.12-15.352 39.893-7.086 64.533l3.543 9.387-8.267 3.52c-50.781 24.64-108.648 28.16-149.981 9.387-28.343-12.907-47.238-34.027-56.686-63.36-31.886-24.64-30.705-77.44-22.438-107.947-4.724-17.6 3.543-46.933 21.257-75.093 1.181-11.733 7.086-55.147 29.524-80.96-2.362-56.32-43.695-72.747-90.933-91.52-56.686-21.12-120.457-46.933-120.457-144.32v-11.733h330.667v23.467h-307.048c4.724 71.573 53.143 91.52 105.105 112.64s105.105 42.24 105.105 117.333v4.693l-3.543 3.52c-23.619 23.467-27.162 72.747-27.162 72.747v5.867c-20.076 29.333-22.438 52.8-18.895 58.667l2.362 4.693-1.181 4.693c-8.267 25.813-9.448 70.4 15.352 86.827l3.543 2.347 1.181 4.693c7.086 23.467 22.438 41.067 44.876 51.627 33.067 15.253 79.124 12.907 120.457-4.693-5.905-28.16 2.362-49.28 10.629-69.227 9.448-22.293 16.533-42.24 3.543-69.227l-2.362-4.693 2.362-4.693c2.362-5.867 0-29.333-18.895-58.667l-1.181-2.347v-3.52c0 0-3.543-49.28-27.162-72.747l-5.905-5.867v-4.693c0-41.067 16.533-70.4 51.962-92.693z" />
<glyph unicode="&#xe902;" horiz-adv-x="1035" d="M1034.667 50.987v50.453l-24.8 12.907-7.086 16.427 8.267 28.16-35.429 35.2-27.162-8.213-16.533 7.040-12.99 24.64h-50.781l-12.99-24.64-16.533-7.040-28.343 8.213-35.429-35.2 8.267-26.987-7.086-16.427-24.8-12.907v-50.453l24.8-12.907 7.086-16.427-8.267-28.16 35.429-35.2 27.162 8.213 16.533-7.040 12.99-24.64h50.781l12.99 24.64 16.533 7.040 28.343-8.213 35.429 35.2-8.267 26.987 7.086 16.427zM990.971 54.507l-12.99-31.68 5.905-21.12-16.533-16.427-21.257 5.867-31.886-12.907-9.448-18.773h-23.619l-10.629 19.947-31.886 12.907-21.257-5.867-16.533 16.427 5.905 21.12-12.99 31.68-18.895 9.387v23.467l20.076 10.56 12.99 31.68-5.905 21.12 16.533 16.427 21.257-5.867 31.886 12.907 9.448 18.773h23.619l10.629-19.947 31.886-12.907 21.257 5.867 16.533-16.427-5.905-21.12 12.99-31.68 18.895-9.387v-23.467z" />
<glyph unicode="&#xe903;" horiz-adv-x="1035" d="M892.952 129.6c-29.524 0-53.143-23.467-53.143-52.8s23.619-52.8 53.143-52.8c29.524 0 53.143 23.467 53.143 52.8s-23.619 52.8-53.143 52.8zM892.952 47.467c-16.533 0-29.524 12.907-29.524 29.333s12.99 29.333 29.524 29.333c16.533 0 29.524-12.907 29.524-29.333s-12.99-29.333-29.524-29.333z" />
<glyph unicode="&#xe904;" horiz-adv-x="1035" d="M755.366 582.317c0-208.589-169.094-377.683-377.683-377.683s-377.683 169.094-377.683 377.683c0 208.589 169.094 377.683 377.683 377.683s377.683-169.094 377.683-377.683z" />
<glyph unicode="&#xe905;" horiz-adv-x="1035" d="M766.955 224.209c-27.091 16.384-38.87 37.449-40.048 67.877 22.38 25.746 28.269 69.047 29.447 80.75 17.668 26.917 25.913 55.003 21.202 73.728 15.313 33.938 4.712 60.855-4.712 84.261-8.245 21.065-15.313 39.79-7.067 64.366l3.534 9.362-8.245 3.511c-50.649 24.576-108.365 28.087-149.591 9.362-28.269-12.873-47.115-33.938-56.538-63.195-31.803-24.576-30.625-77.239-22.38-107.666-4.712-17.554 3.534-46.811 21.202-74.898 1.178-11.703 7.067-55.003 29.447-80.75-2.356-56.174-43.582-72.558-90.697-91.282-56.538-21.065-120.144-46.811-120.144-143.945v-11.703h329.808v23.406h-306.25c4.712 71.387 53.005 91.282 104.832 112.347s104.832 42.13 104.832 117.029v4.681l-3.534 3.511c-23.558 23.406-27.091 72.558-27.091 72.558v5.851c-20.024 29.257-22.38 52.663-18.846 58.514l2.356 4.681-1.178 4.681c-8.245 25.746-9.423 70.217 15.313 86.601l3.534 2.341 1.178 4.681c7.067 23.406 22.38 40.96 44.76 51.493 32.981 15.214 78.918 12.873 120.144-4.681-5.889-28.087 2.356-49.152 10.601-69.047 9.423-22.235 16.49-42.13 3.534-69.047l-2.356-4.681 2.356-4.681c2.356-5.851 0-29.257-18.846-58.514l-1.178-2.341v-3.511c0 0-3.534-49.152-27.091-72.558l-5.889-5.851v-4.681c0-40.96 16.49-70.217 51.827-92.453z" />
<glyph unicode="&#xe906;" horiz-adv-x="1035" d="M1031.979 53.348v50.322l-24.736 12.873-7.067 16.384 8.245 28.087-35.337 35.109-27.091-8.192-16.49 7.022-12.957 24.576h-50.649l-12.957-24.576-16.49-7.022-28.269 8.192-35.337-35.109 8.245-26.917-7.067-16.384-24.736-12.873v-50.322l24.736-12.873 7.067-16.384-8.245-28.087 35.337-35.109 27.091 8.192 16.49-7.022 12.957-24.576h50.649l12.957 24.576 16.49 7.022 28.269-8.192 35.337 35.109-8.245 26.917 7.067 16.384zM988.397 56.859l-12.957-31.598 5.889-21.065-16.49-16.384-21.202 5.851-31.803-12.873-9.423-18.725h-23.558l-10.601 19.895-31.803 12.873-21.202-5.851-16.49 16.384 5.889 21.065-12.957 31.598-18.846 9.362v23.406l20.024 10.533 12.957 31.598-5.889 21.065 16.49 16.384 21.202-5.851 31.803 12.873 9.423 18.725h23.558l10.601-19.895 31.803-12.873 21.202 5.851 16.49-16.384-5.889-21.065 12.957-31.598 18.846-9.362v-23.406z" />
<glyph unicode="&#xe907;" horiz-adv-x="1035" d="M890.633 131.757c-29.447 0-53.005-23.406-53.005-52.663s23.558-52.663 53.005-52.663c29.447 0 53.005 23.406 53.005 52.663s-23.558 52.663-53.005 52.663zM890.633 49.837c-16.49 0-29.447 12.873-29.447 29.257s12.957 29.257 29.447 29.257c16.49 0 29.447-12.873 29.447-29.257s-12.957-29.257-29.447-29.257z" />
<glyph unicode="&#xe908;" d="M0 960h1024v-1024h-1024v1024z" />
<glyph unicode="&#xe909;" d="M277.333 682.667h213.333v-213.333h-213.333v213.333z" />
<glyph unicode="&#xe90a;" d="M277.333 426.667h213.333v-213.333h-213.333v213.333z" />
<glyph unicode="&#xe90b;" d="M533.333 682.667h213.333v-213.333h-213.333v213.333z" />
<glyph unicode="&#xe90c;" d="M533.333 426.667h213.333v-213.333h-213.333v213.333z" />
<glyph unicode="&#xe90d;" d="M0 960h1024v-1024h-1024v1024z" />
<glyph unicode="&#xe90e;" d="M362.667 682.667h426.667v-64h-426.667v64z" />
<glyph unicode="&#xe90f;" d="M362.667 490.667h426.667v-64h-426.667v64z" />
<glyph unicode="&#xe910;" d="M234.667 682.667h64v-64h-64v64z" />
<glyph unicode="&#xe911;" d="M234.667 490.667h64v-64h-64v64z" />
<glyph unicode="&#xe912;" d="M234.667 298.667h64v-64h-64v64z" />
<glyph unicode="&#xe913;" d="M362.667 298.667h426.667v-64h-426.667v64z" />
<glyph unicode="&#xe914;" glyph-name="appearance" horiz-adv-x="1482" d="M737.369 959.828c-17.358-1.931-30.342-17.028-29.967-34.703v-136.4c-0.172-12.301 6.21-23.766 16.706-29.967s23.433-6.201 33.928 0c10.495 6.201 16.877 17.666 16.706 29.967v136.4c0.207 9.823-3.777 19.285-10.936 25.919s-16.789 9.859-26.436 8.783zM365.714 891.542c-11.238-1.458-21.024-8.471-26.006-18.772s-4.463-22.498 1.292-32.378l67.339-119.35c5.92-10.671 17.016-17.341 29.106-17.481s23.376 6.26 29.536 16.792 6.277 23.609 0.344 34.272l-67.339 119.35c-6.672 12.508-20.36 19.495-34.272 17.567zM1108.508 891.542c-11.076-1.112-20.922-7.677-26.264-17.567l-67.425-119.35c-5.926-10.663-5.727-23.746 0.431-34.272s17.365-16.929 29.45-16.792 23.182 6.817 29.106 17.481l67.425 119.35c6.428 11.108 6.124 24.921-0.775 35.736-6.884 10.79-19.246 16.739-31.861 15.414h-0.086zM741.072 686.425c-285.007 0-543.34-135.51-732.805-352.883-11.025-12.835-11.025-31.856 0-44.692 37.557-43.068 77.729-86.033 121.589-123.139 9.306-7.847 22.053-10.112 33.411-5.856s19.598 14.346 21.614 26.436c2.016 12.090-2.448 24.411-11.797 32.206-32.344 27.363-62.671 60.093-92.656 93.258 122.152 132.359 270.666 227.922 434.775 274.436-77.871-65.834-127.358-165.062-127.358-275.555 0-111.032 49.948-209.85 128.478-275.469-80.36 22.238-157.354 55.774-229.055 100.147-10.264 6.861-23.393 7.53-34.272 1.722s-17.791-17.173-17.997-29.622c-0.207-12.449 6.369-24.052 17.050-30.225 146.158-90.452 312.825-141.222 489.025-141.222 284.89 0 543.342 135.625 732.805 352.883 11.025 12.835 11.025 31.856 0 44.692-189.465 217.373-447.798 352.883-732.805 352.883zM741.072 601.692c158.568 0 285.889-130.53 285.889-291.055s-127.321-289.333-285.889-289.333c-158.568 0-286.405 128.808-286.405 289.333s127.838 291.055 286.405 291.055zM966.941 586.192c164.107-46.632 312.687-142.48 434.861-274.953-122.273-132.466-271.073-228.929-435.378-275.555 78.406 65.623 128.478 164.19 128.478 274.953 0 110.493-49.885 209.722-127.961 275.555zM741.072 447.639c-74.033 0-134.764-61.453-134.764-136.4s60.731-136.486 134.764-136.486 134.764 61.538 134.764 136.486c0 74.947-60.73 136.4-134.764 136.4zM741.072 379.439c37.615 0 67.425-30.121 67.425-68.2 0-38.081-29.81-68.286-67.425-68.286s-67.339 30.205-67.339 68.286c0 38.079 29.724 68.2 67.339 68.2z" />
<glyph unicode="&#xe915;" glyph-name="aroma" horiz-adv-x="786" d="M785.969 134.854c-4.967 113.893-76.322 187.913-145.343 259.498-8.46 8.783-16.937 17.582-25.314 26.476l-507.733 539.171-58.177-50.614 507.716-539.171c8.576-9.133 17.251-18.139 25.926-27.113 62.084-64.393 120.741-125.238 124.499-211.366 1.258-29.34-6.771-52.253-24.602-70.121-30.612-30.693-91.255-48.259-171.551-49.993-30.794 70.169-103.126 119.558-187.196 119.558-84.153 0-156.502-49.452-187.262-119.685h-136.933v-75.436h199.663c0 65.984 55.859 119.701 124.533 119.701s124.549-53.717 124.549-119.701h78.474c0 0.222 0-0.208 0 0 72.349 3.166 159.2 20.080 212.361 73.319 32.963 33.032 48.558 75.261 46.389 125.477z" />
<glyph unicode="&#xe916;" glyph-name="arrow-down" horiz-adv-x="1704" d="M121.594 959.959c-67.125-0.018-121.533-54.438-121.533-121.565 0-34.149 14.080-65.009 36.752-87.091l815.285-815.285 815.259 815.259c23.052 22.158 37.373 53.252 37.373 87.691 0 67.139-54.427 121.565-121.565 121.565-34.439 0-65.533-14.321-87.653-37.333l-0.038-0.040-643.376-643.376-643.376 643.376c-22.108 22.708-52.973 36.796-87.128 36.798v0z" />
<glyph unicode="&#xe917;" glyph-name="arrow-down-white" horiz-adv-x="1704" d="M121.594 959.959c-67.125-0.018-121.533-54.438-121.533-121.565 0-34.149 14.080-65.009 36.752-87.091l815.285-815.285 815.259 815.259c23.052 22.158 37.373 53.252 37.373 87.691 0 67.139-54.427 121.565-121.565 121.565-34.439 0-65.533-14.321-87.653-37.333l-0.038-0.040-643.376-643.376-643.376 643.376c-22.108 22.708-52.973 36.796-87.128 36.798v0z" />
<glyph unicode="&#xe918;" glyph-name="arrow-right" horiz-adv-x="578" d="M24.21 846.704c-58.508 69.172 29.784 151.815 92.192 86.292l427.948-428.95c38.553-36.548 40.409-78.424 2.29-111.916l-430.518-432.753c-67.018-63.376-155.826 29.48-91.638 90.39l394.521 398.324z" />
<glyph unicode="&#xe919;" glyph-name="arrow-right-2" horiz-adv-x="1388" d="M876.394 960c-35.298-0.010-63.909-28.626-63.909-63.926 0-17.957 7.404-34.185 19.326-45.797l338.337-338.337h-1105.354c-0.269 0.004-0.586 0.006-0.904 0.006-35.305 0-63.926-28.621-63.926-63.926s28.621-63.926 63.926-63.926c0.318 0 0.635 0.002 0.952 0.007l-0.048-0.001h1105.354l-338.323-338.323c-12.121-11.652-19.652-28.002-19.652-46.112 0-35.305 28.621-63.926 63.926-63.926 18.11 0 34.461 7.53 46.092 19.631l0.020 0.021 447.435 447.435c11.563 11.567 18.714 27.545 18.714 45.193s-7.151 33.626-18.714 45.193l-447.435 447.435c-11.626 11.941-27.856 19.35-45.817 19.351v0z" />
<glyph unicode="&#xe91a;" glyph-name="arrow-right-active" horiz-adv-x="578" d="M65.957 959.968c-36.411-0.010-65.924-29.529-65.924-65.942 0-18.524 7.638-35.263 19.936-47.242l398.845-398.845-398.831-398.702c-12.504-12.019-20.271-28.885-20.271-47.566 0-36.419 29.523-65.942 65.942-65.942 18.681 0 35.547 7.768 47.545 20.25l0.021 0.022 445.449 445.32c11.966 11.939 19.369 28.446 19.369 46.683s-7.403 34.744-19.367 46.681l-445.45 445.321c-11.992 12.318-28.735 19.96-47.262 19.961v0z" />
<glyph unicode="&#xe91b;" glyph-name="arrow-right-gray" horiz-adv-x="578" d="M65.957 959.968c-36.411-0.010-65.924-29.529-65.924-65.942 0-18.524 7.638-35.263 19.936-47.242l398.845-398.845-398.831-398.702c-12.504-12.019-20.271-28.885-20.271-47.566 0-36.419 29.523-65.942 65.942-65.942 18.681 0 35.547 7.768 47.545 20.25l0.021 0.022 445.449 445.32c11.966 11.939 19.369 28.446 19.369 46.683s-7.403 34.744-19.367 46.681l-445.45 445.321c-11.992 12.318-28.735 19.96-47.262 19.961v0z" />
<glyph unicode="&#xe91c;" glyph-name="arrow-right-thin" horiz-adv-x="532" d="M40.988 960.001c-0.326 0.010-0.71 0.015-1.095 0.015-22.019 0-39.868-17.85-39.868-39.868 0-10.807 4.3-20.609 11.282-27.79l-0.009 0.009 425.58-450.651-425.217-437.674c-7.203-7.213-11.657-17.172-11.657-28.171 0-22.019 17.85-39.868 39.868-39.868 11.412 0 21.705 4.795 28.972 12.48l0.018 0.019 451.793 465.081c6.956 7.168 11.245 16.959 11.245 27.752 0 10.608-4.143 20.248-10.899 27.391l0.018-0.019-451.793 478.369c-7.057 7.687-17.044 12.588-28.178 12.923l-0.060 0.001z" />
<glyph unicode="&#xe91d;" glyph-name="arrow-right-white" horiz-adv-x="578" d="M65.957 959.968c-36.411-0.010-65.924-29.529-65.924-65.942 0-18.524 7.638-35.263 19.936-47.242l398.845-398.845-398.831-398.702c-12.504-12.019-20.271-28.885-20.271-47.566 0-36.419 29.523-65.942 65.942-65.942 18.681 0 35.547 7.768 47.545 20.25l0.021 0.022 445.449 445.32c11.966 11.939 19.369 28.446 19.369 46.683s-7.403 34.744-19.367 46.681l-445.45 445.321c-11.992 12.318-28.735 19.96-47.262 19.961v0z" />
<glyph unicode="&#xe91e;" glyph-name="arrow-rihgt" horiz-adv-x="578" d="M65.957 959.968c-36.411-0.010-65.924-29.529-65.924-65.942 0-18.524 7.638-35.263 19.936-47.242l398.845-398.845-398.831-398.702c-12.504-12.019-20.271-28.885-20.271-47.566 0-36.419 29.523-65.942 65.942-65.942 18.681 0 35.547 7.768 47.545 20.25l0.021 0.022 445.449 445.32c11.966 11.939 19.369 28.446 19.369 46.683s-7.403 34.744-19.367 46.681l-445.45 445.321c-11.992 12.318-28.735 19.96-47.262 19.961v0z" />
<glyph unicode="&#xe91f;" horiz-adv-x="880" d="M865.352 527.324c0-238.96-193.716-432.676-432.676-432.676s-432.676 193.716-432.676 432.676c0 238.96 193.716 432.676 432.676 432.676s432.676-193.716 432.676-432.676z" />
<glyph unicode="&#xe920;" horiz-adv-x="880" d="M489.717 54.77c-33.295 0-60.286-26.991-60.286-60.286s26.991-60.286 60.286-60.286c33.295 0 60.286 26.991 60.286 60.286s-26.991 60.286-60.286 60.286zM761.005 54.77c-33.295 0-60.286-26.991-60.286-60.286s26.991-60.286 60.286-60.286c33.295 0 60.286 26.991 60.286 60.286s-26.991 60.286-60.286 60.286zM505.058 118.070l0.807 3.376 24.222 45.858h200.505c20.185 0 37.948 11.535 47.099 28.978l103.886 197.216-46.829 27.008h-0.269l-29.605-56.267-74.281-140.668h-188.933l-3.499 7.596-60.286 133.072-25.568 56.267-25.299 56.267h-88.007v-56.267h53.827l96.889-213.534-36.333-68.927c-4.306-7.877-6.728-17.161-6.728-27.008 0-31.075 24.099-56.267 53.827-56.267h322.962v56.267h-311.658c-3.499 0-6.728 3.095-6.728 7.033z" />
<glyph unicode="&#xe921;" horiz-adv-x="880" d="M863.831 528.084c0-238.54-193.375-431.916-431.916-431.916s-431.916 193.375-431.916 431.916c0 238.54 193.375 431.916 431.916 431.916s431.916-193.375 431.916-431.916z" />
<glyph unicode="&#xe922;" horiz-adv-x="880" d="M488.857 56.36c-33.237 0-60.18-26.944-60.18-60.18s26.944-60.18 60.18-60.18c33.237 0 60.18 26.944 60.18 60.18s-26.944 60.18-60.18 60.18zM759.668 56.36c-33.237 0-60.18-26.944-60.18-60.18s26.944-60.18 60.18-60.18c33.237 0 60.18 26.944 60.18 60.18s-26.944 60.18-60.18 60.18zM504.17 119.55l0.806 3.37 24.18 45.777h200.153c20.15 0 37.881 11.514 47.016 28.927l103.703 196.87-46.747 26.961h-0.269l-29.553-56.168-74.151-140.421h-188.601l-3.493 7.583-60.18 132.838-25.523 56.168-25.254 56.168h-87.852v-56.168h53.732l96.718-213.158-36.269-68.806c-4.299-7.864-6.717-17.131-6.717-26.961 0-31.021 24.057-56.168 53.732-56.168h322.394v56.168h-311.11c-3.493 0-6.717 3.089-6.717 7.021z" />
<glyph unicode="&#xe923;" glyph-name="cart-empty" horiz-adv-x="1071" d="M318.615 140.8c-58.655 0-106.205-45.846-106.205-102.4s47.55-102.4 106.205-102.4c58.655 0 106.205 45.846 106.205 102.4s-47.55 102.4-106.205 102.4zM849.639 140.8c-58.655 0-106.205-45.846-106.205-102.4s47.55-102.4 106.205-102.4c58.655 0 106.205 45.846 106.205 102.4s-47.55 102.4-106.205 102.4zM327.642 307.2l1.593 6.144 47.792 83.456h395.613c39.827 0 74.874 20.992 92.929 52.736l204.975 358.912-92.398 49.152h-0.531l-58.413-102.4-146.563-256h-372.779l-6.903 13.824-118.949 242.176-50.447 102.4-49.916 102.4h-173.645v-102.4h106.205l191.169-388.608-71.688-125.44c-8.496-14.336-13.276-31.232-13.276-49.152 0-56.554 47.55-102.4 106.205-102.4h637.229v102.4h-614.926c-6.903 0-13.276 5.632-13.276 12.8z" />
<glyph unicode="&#xe924;" d="M785.34 516.54c0-150.811-122.256-273.067-273.067-273.067s-273.067 122.256-273.067 273.067c0 150.811 122.256 273.067 273.067 273.067s273.067-122.256 273.067-273.067z" />
<glyph unicode="&#xe925;" d="M785.34 516.54c0-150.811-122.256-273.067-273.067-273.067s-273.067 122.256-273.067 273.067c0 150.811 122.256 273.067 273.067 273.067s273.067-122.256 273.067-273.067z" />
<glyph unicode="&#xe926;" horiz-adv-x="1229" d="M200.272 445.074c-36.869 0-66.757-28.818-66.757-64.366s29.888-64.366 66.757-64.366c36.869 0 66.757 28.818 66.757 64.366s-29.888 64.366-66.757 64.366zM534.059 445.074c-36.869 0-66.757-28.818-66.757-64.366s29.888-64.366 66.757-64.366c36.869 0 66.757 28.818 66.757 64.366s-29.888 64.366-66.757 64.366zM205.946 549.669l1.001 3.862 30.041 52.458h248.671c25.034 0 47.064 13.195 58.413 33.148l128.842 225.602-58.079 30.896h-0.334l-36.717-64.366-92.125-160.914h-234.318l-4.339 8.689-74.768 152.225-31.71 64.366-31.376 64.366h-109.148v-64.366h66.757l120.163-244.268-45.061-78.848c-5.341-9.011-8.345-19.632-8.345-30.896 0-35.548 29.888-64.366 66.757-64.366h400.544v64.366h-386.525c-4.339 0-8.345 3.54-8.345 8.046z" />
<glyph unicode="&#xe927;" horiz-adv-x="1229" d="M1024 433.371c0-129.266-104.791-234.057-234.057-234.057s-234.057 104.791-234.057 234.057c0 129.266 104.791 234.057 234.057 234.057s234.057-104.791 234.057-234.057z" />
<glyph unicode="&#xe928;" horiz-adv-x="1229" d="M1024 433.371c0-129.266-104.791-234.057-234.057-234.057s-234.057 104.791-234.057 234.057c0 129.266 104.791 234.057 234.057 234.057s234.057-104.791 234.057-234.057z" />
<glyph unicode="&#xe929;" glyph-name="cart-white" horiz-adv-x="1044" d="M310.857 140.8c-57.227 0-103.619-45.846-103.619-102.4s46.392-102.4 103.619-102.4c57.227 0 103.619 45.846 103.619 102.4s-46.392 102.4-103.619 102.4zM828.952 140.8c-57.227 0-103.619-45.846-103.619-102.4s46.392-102.4 103.619-102.4c57.227 0 103.619 45.846 103.619 102.4s-46.392 102.4-103.619 102.4zM319.665 307.2l1.554 6.144 46.629 83.456h385.981c38.857 0 73.051 20.992 90.667 52.736l199.985 358.912-90.149 49.152h-0.518l-56.99-102.4-142.994-256h-363.703l-6.735 13.824-116.053 242.176-49.219 102.4-48.701 102.4h-169.417v-102.4h103.619l186.514-388.608-69.943-125.44c-8.29-14.336-12.952-31.232-12.952-49.152 0-56.554 46.392-102.4 103.619-102.4h621.714v102.4h-599.954c-6.735 0-12.952 5.632-12.952 12.8z" />
<glyph unicode="&#xe92a;" horiz-adv-x="880" d="M865.352 527.324c0-238.96-193.716-432.676-432.676-432.676s-432.676 193.716-432.676 432.676c0 238.96 193.716 432.676 432.676 432.676s432.676-193.716 432.676-432.676z" />
<glyph unicode="&#xe92b;" horiz-adv-x="880" d="M489.717 54.77c-33.295 0-60.286-26.991-60.286-60.286s26.991-60.286 60.286-60.286c33.295 0 60.286 26.991 60.286 60.286s-26.991 60.286-60.286 60.286zM761.005 54.77c-33.295 0-60.286-26.991-60.286-60.286s26.991-60.286 60.286-60.286c33.295 0 60.286 26.991 60.286 60.286s-26.991 60.286-60.286 60.286zM505.058 118.070l0.807 3.376 24.222 45.858h200.505c20.185 0 37.948 11.535 47.099 28.978l103.886 197.216-46.829 27.008h-0.269l-29.605-56.267-74.281-140.668h-188.933l-3.499 7.596-60.286 133.072-25.568 56.267-25.299 56.267h-88.007v-56.267h53.827l96.889-213.534-36.333-68.927c-4.306-7.877-6.728-17.161-6.728-27.008 0-31.075 24.099-56.267 53.827-56.267h322.962v56.267h-311.658c-3.499 0-6.728 3.095-6.728 7.033z" />
<glyph unicode="&#xe92c;" glyph-name="check-out" d="M284.444 163.556c-62.838 0-113.778-50.94-113.778-113.778s50.94-113.778 113.778-113.778c62.838 0 113.778 50.94 113.778 113.778s-50.94 113.778-113.778 113.778zM796.444 163.556c-62.838 0-113.778-50.94-113.778-113.778s50.94-113.778 113.778-113.778c62.838 0 113.778 50.94 113.778 113.778s-50.94 113.778-113.778 113.778zM313.397 283.022l1.524 6.372 45.714 86.547h378.413c38.095 0 71.619 21.77 88.889 54.689l196.064 372.205-88.381 50.972h-0.508l-55.873-106.193-140.19-265.481h-356.571l-6.603 14.336-113.778 251.145-48.254 106.193-47.746 106.193h-166.095v-106.193h101.587l182.857-403.001-68.571-130.086c-8.127-14.867-12.698-32.389-12.698-50.972 0-58.649 45.482-106.193 101.587-106.193h609.524v106.193h-588.19c-6.603 0-12.698 5.841-12.698 13.274z" />
<glyph unicode="&#xe92d;" glyph-name="chevron-down" horiz-adv-x="1704" d="M121.594 959.959c-67.125-0.018-121.533-54.438-121.533-121.565 0-34.149 14.080-65.009 36.752-87.091l815.285-815.285 815.259 815.259c23.052 22.158 37.373 53.252 37.373 87.691 0 67.139-54.427 121.565-121.565 121.565-34.439 0-65.533-14.321-87.653-37.333l-0.038-0.040-643.376-643.376-643.376 643.376c-22.108 22.708-52.973 36.796-87.128 36.798v0z" />
<glyph unicode="&#xe92e;" horiz-adv-x="1286" d="M1286.244 448c0-282.77-229.23-512-512-512s-512 229.23-512 512c0 282.77 229.23 512 512 512s512-229.23 512-512z" />
<glyph unicode="&#xe92f;" horiz-adv-x="1286" d="M721.171 279.415h-163.902c-27.156 0-49.171 22.014-49.171 49.171v278.634c0 27.156 22.014 49.171 49.171 49.171s49.171-22.014 49.171-49.171v-98.341h114.732c27.156 0 49.171-22.014 49.171-49.171v-131.122c0-27.156-22.014-49.171-49.171-49.171zM557.268 623.61c-9.052 0-16.39-7.338-16.39-16.39v-278.634c0-9.052 7.338-16.39 16.39-16.39h163.902c9.052 0 16.39 7.338 16.39 16.39v131.122c0 9.052-7.338 16.39-16.39 16.39h-131.122c-9.052 0-16.39 7.338-16.39 16.39v114.732c0 9.052-7.338 16.39-16.39 16.39z" />
<glyph unicode="&#xe930;" horiz-adv-x="1286" d="M524.488 312.195c-21.979-0.832-43.311 7.534-58.864 23.087s-23.919 36.885-23.087 58.864v49.171c0 27.156 22.014 49.171 49.171 49.171h32.78v-32.78h-32.78c-9.052 0-16.39-7.338-16.39-16.39v-49.171c-0.699-13.26 4.27-26.193 13.669-35.573s22.341-14.324 35.6-13.598z" />
<glyph unicode="&#xe931;" horiz-adv-x="1286" d="M737.561 148.293h-196.683c-27.156 0-49.171 22.014-49.171 49.171v65.561c0 27.156 22.014 49.171 49.171 49.171h196.683c27.156 0 49.171-22.014 49.171-49.171v-65.561c0-27.156-22.014-49.171-49.171-49.171zM540.878 279.415c-9.052 0-16.39-7.338-16.39-16.39v-65.561c0-9.052 7.338-16.39 16.39-16.39h196.683c9.052 0 16.39 7.338 16.39 16.39v65.561c0 9.052-7.338 16.39-16.39 16.39z" />
<glyph unicode="&#xe932;" horiz-adv-x="1286" d="M458.927 148.293h-409.756c-27.156 0-49.171 22.014-49.171 49.171v590.049c0.001 4.347 1.728 8.515 4.802 11.588l131.122 131.122c3.073 3.074 7.241 4.801 11.588 4.802h393.366c27.156 0 49.171-22.014 49.171-49.171v-196.683h-32.78v196.683c0 9.052-7.338 16.39-16.39 16.39h-386.58l-121.517-121.517v-583.263c0-9.052 7.338-16.39 16.39-16.39h409.756z" />
<glyph unicode="&#xe933;" horiz-adv-x="1286" d="M114.732 771.122h-98.341v32.78h98.341c9.052 0 16.39 7.338 16.39 16.39v98.341h32.78v-98.341c0-27.156-22.014-49.171-49.171-49.171z" />
<glyph unicode="&#xe934;" horiz-adv-x="1286" d="M163.902 525.268c-44.514-0.010-83.484 29.884-95.009 72.88s7.269 88.373 45.82 110.629c38.551 22.256 87.245 15.841 118.717-15.64l-23.176-23.176c-25.931 24.784-66.772 24.784-92.703 0-25.594-25.602-25.594-67.102 0-92.703 25.931-24.784 66.772-24.784 92.703 0l23.176-23.176c-18.393-18.512-43.432-28.888-69.527-28.814z" />
<glyph unicode="&#xe935;" horiz-adv-x="1286" d="M147.512 640h327.805v-32.78h-327.805v32.78z" />
<glyph unicode="&#xe936;" horiz-adv-x="1286" d="M163.902 295.805c-54.312 0-98.341 44.029-98.341 98.341s44.029 98.341 98.341 98.341c54.312 0 98.341-44.029 98.341-98.341-0.054-54.29-44.051-98.287-98.341-98.341zM163.902 459.707c-36.208 0-65.561-29.353-65.561-65.561s29.353-65.561 65.561-65.561c36.208 0 65.561 29.353 65.561 65.561s-29.353 65.561-65.561 65.561z" />
<glyph unicode="&#xe937;" horiz-adv-x="1286" d="M103.131 356.554l98.338 98.338 23.179-23.179-98.338-98.338z" />
<glyph unicode="&#xe938;" horiz-adv-x="1286" d="M295.024 443.317h114.732v-32.78h-114.732v32.78z" />
<glyph unicode="&#xe939;" horiz-adv-x="1286" d="M295.024 377.756h114.732v-32.78h-114.732v32.78z" />
<glyph unicode="&#xe93a;" horiz-adv-x="1286" d="M524.488 787.512h-32.78v32.78c0 9.052-7.338 16.39-16.39 16.39h-32.78v32.78h32.78c27.156 0 49.171-22.014 49.171-49.171z" />
<glyph unicode="&#xe93b;" horiz-adv-x="1286" d="M376.976 869.463h32.78v-32.78h-32.78v32.78z" />
<glyph unicode="&#xe93c;" glyph-name="close-dark" d="M63.357 960c-34.988-0.009-63.347-28.375-63.347-63.364 0-17.799 7.339-33.884 19.156-45.394l0.014-0.013 403.283-403.283-403.283-403.16c-12.015-11.549-19.479-27.756-19.479-45.706 0-34.995 28.369-63.364 63.364-63.364 17.95 0 34.157 7.464 45.686 19.458l0.020 0.021 403.283 403.16 403.16-403.16c11.549-12.014 27.756-19.478 45.706-19.478 34.995 0 63.364 28.369 63.364 63.364 0 17.95-7.464 34.157-19.458 45.686l-0.021 0.020-403.16 403.16 403.16 403.283c11.848 11.526 19.198 27.622 19.198 45.435 0 34.995-28.369 63.364-63.364 63.364-0.657 0-1.311-0.010-1.963-0.030l0.095 0.002c-17.124-0.526-32.46-7.767-43.544-19.166l-0.014-0.015-403.16-403.283-403.283 403.283c-11.524 11.836-27.611 19.179-45.414 19.18v0z" />
<glyph unicode="&#xe93d;" horiz-adv-x="1714" d="M790.512 960c71.738-0.009 137.618-25.565 188.846-68.271 51.24-42.718 87.843-102.586 101.015-171.224 7.327 1.462 14.642 2.191 43.922 2.929 77.588-0.009 147.13-31.403 197.259-82.147 50.14-50.747 80.882-120.833 80.882-198.228s-31.473-147.492-82.344-198.239c-50.871-50.744-121.136-82.139-198.724-82.139-289.629 0.709-643.87-9.508-884.219 0-64.408 0-123.695 26.285-166.886 69.003-43.179 42.706-70.261 101.856-70.261 167.563 0 61.338 23.415 117.556 61.846 160.266 38.426 42.715 91.859 71.921 151.886 79.218 11.709 55.491 41.716 102.951 83.079 136.533 41.348 33.594 94.050 53.3 151.143 53.312 14.642-0.011 29.288-1.47 87.84-17.526 24.889 45.259 62.215 82.503 106.502 108.424 44.279 25.921 95.516 40.518 148.218 40.527zM790.517 881.095c-38.474 0.311-74.786-11.563-108.19-29.676-32.781-19.185-59.601-46.348-77.177-78.315l-30.059-54.662-60.264 16.526c-45.233 12.403-57.616 14.697-66.862 14.703-37.657-0.006-72.984-12.663-101.22-35.6-28.205-22.903-47.864-54.885-55.608-91.59l-11.655-55.244-56.179-6.83c-39.628-4.818-75.974-24.014-102.594-53.605-26.691-29.659-41.608-67.536-41.611-107.555 0.003-42.416 16.999-82.002 46.858-111.533 29.705-29.38 69.459-46.128 111.189-46.128h1.568l1.565-0.060c126.243-4.995 254.043-5.015 548.846-2.015 2.565 0.027 2.565 0.027 5.127 0.051 167.877 1.71 240.826 2.234 327.113 2.023 54.331 0 105.094 21.424 142.791 59.030 37.694 37.6 59.175 88.245 59.175 142.443 0 54.639-21.11 105.387-58.121 142.845-37.834 38.763-87.395 55.993-140.546 58.609-9.589-0.445-19.267-0.12-28.802-1.382l-78.194-15.577-14.988 78.121c-9.492 49.456-35.783 93.61-74.049 125.512-39.234 33.326-87.452 47.707-138.115 49.91z" />
<glyph unicode="&#xe93e;" horiz-adv-x="1714" d="M790.517 881.095c-38.474 0.311-74.786-11.563-108.19-29.676-32.781-19.185-59.601-46.348-77.177-78.315l-30.059-54.662-60.264 16.526c-45.233 12.403-57.616 14.697-66.862 14.703-37.657-0.006-72.984-12.663-101.22-35.6-28.205-22.903-47.864-54.885-55.608-91.59l-11.655-55.244-56.179-6.83c-39.628-4.818-75.974-24.014-102.594-53.605-26.691-29.659-41.608-67.536-41.611-107.555 0.003-42.416 16.999-82.002 46.858-111.533 29.705-29.38 69.459-46.128 111.189-46.128h1.568l1.565-0.060c126.243-4.995 254.043-5.015 548.846-2.015 2.565 0.027 2.565 0.027 5.127 0.051 167.877 1.71 240.826 2.234 327.113 2.023 54.331 0 105.094 21.424 142.791 59.030 37.694 37.6 59.175 88.245 59.175 142.443 0 54.639-21.11 105.387-58.121 142.845-37.834 38.763-87.395 55.993-140.546 58.609-9.589-0.445-19.267-0.12-28.802-1.382l-78.194-15.577-14.988 78.121c-9.492 49.456-35.783 93.61-74.049 125.512-39.234 33.326-87.452 47.707-138.115 49.91z" />
<glyph unicode="&#xe93f;" horiz-adv-x="1714" d="M1102.164 737.391c71.738-0.009 137.618-25.565 188.846-68.271 51.24-42.718 87.843-102.586 101.015-171.224 7.327 1.462 14.642 2.191 43.922 2.929 77.588-0.009 147.13-31.403 197.259-82.147 50.14-50.747 80.882-120.833 80.882-198.228s-31.473-147.492-82.344-198.239c-50.871-50.744-121.136-82.139-198.724-82.139-289.629 0.709-643.87-9.508-884.219 0-64.408 0-123.695 26.285-166.886 69.003-43.179 42.706-70.261 101.856-70.261 167.563 0 61.338 23.415 117.556 61.846 160.266 38.426 42.715 91.859 71.921 151.886 79.218 11.709 55.491 41.716 102.951 83.079 136.533 41.348 33.594 94.050 53.3 151.143 53.312 14.642-0.011 29.288-1.47 87.84-17.526 24.889 45.259 62.215 82.503 106.502 108.424 44.279 25.921 95.516 40.518 148.218 40.527zM1102.17 658.487c-38.474 0.311-74.786-11.563-108.19-29.676-32.781-19.185-59.601-46.348-77.177-78.315l-30.059-54.662-60.264 16.526c-45.233 12.403-57.616 14.697-66.862 14.703-37.657-0.006-72.984-12.663-101.22-35.6-28.205-22.903-47.864-54.885-55.608-91.59l-11.655-55.244-56.179-6.83c-39.628-4.818-75.974-24.014-102.594-53.605-26.691-29.659-41.608-67.536-41.611-107.555 0.003-42.416 16.999-82.002 46.858-111.533 29.705-29.38 69.459-46.128 111.189-46.128h1.568l1.565-0.060c126.243-4.995 254.043-5.015 548.846-2.015 2.565 0.027 2.565 0.027 5.127 0.051 167.877 1.71 240.826 2.234 327.113 2.023 54.331 0 105.094 21.424 142.791 59.030 37.694 37.6 59.175 88.245 59.175 142.443 0 54.639-21.11 105.387-58.121 142.845-37.834 38.763-87.395 55.993-140.546 58.609-9.589-0.445-19.267-0.12-28.802-1.382l-78.194-15.577-14.988 78.121c-9.492 49.456-35.783 93.61-74.049 125.512-39.234 33.326-87.452 47.707-138.115 49.91z" />
<glyph unicode="&#xe940;" horiz-adv-x="1714" d="M1102.17 658.487c-38.474 0.311-74.786-11.563-108.19-29.676-32.781-19.185-59.601-46.348-77.177-78.315l-30.059-54.662-60.264 16.526c-45.233 12.403-57.616 14.697-66.862 14.703-37.657-0.006-72.984-12.663-101.22-35.6-28.205-22.903-47.864-54.885-55.608-91.59l-11.655-55.244-56.179-6.83c-39.628-4.818-75.974-24.014-102.594-53.605-26.691-29.659-41.608-67.536-41.611-107.555 0.003-42.416 16.999-82.002 46.858-111.533 29.705-29.38 69.459-46.128 111.189-46.128h1.568l1.565-0.060c126.243-4.995 254.043-5.015 548.846-2.015 2.565 0.027 2.565 0.027 5.127 0.051 167.877 1.71 240.826 2.234 327.113 2.023 54.331 0 105.094 21.424 142.791 59.030 37.694 37.6 59.175 88.245 59.175 142.443 0 54.639-21.11 105.387-58.121 142.845-37.834 38.763-87.395 55.993-140.546 58.609-9.589-0.445-19.267-0.12-28.802-1.382l-78.194-15.577-14.988 78.121c-9.492 49.456-35.783 93.61-74.049 125.512-39.234 33.326-87.452 47.707-138.115 49.91z" />
<glyph unicode="&#xe941;" glyph-name="delivery" horiz-adv-x="1703" d="M32.285 584.791l134.662-0.966v-118.758l-103.725-0.064c-19.101 0-34.586-15.441-34.586-34.488s15.485-34.488 34.586-34.488h103.79v-294.32c0-18.999 15.501-34.455 34.554-34.455h183.618c8.924-74.801 72.488-131.16 148.031-131.252 75.554 0.063 139.135 56.437 148.031 131.252h580.628c16.157-66.811 76.073-113.916 144.996-113.992 68.915 0.059 128.821 47.178 144.931 113.992h116.707c19.053 0 34.554 15.457 34.554 34.52v339.788l0.065 1.352-0.065 1.224v8.694c0.005 4.368-0.828 8.696-2.454 12.752l-84.22 210.983c-5.259 13.115-17.999 21.712-32.164 21.704h-48.504v98.343c0.005 16.722-12.033 31.033-28.547 33.94l-327.322 58.091v36.903c0 9.149-3.649 17.923-10.143 24.386s-15.3 10.086-24.475 10.069h-943.601c-9.175 0.017-17.981-3.605-24.475-10.069s-10.143-15.237-10.143-24.386v-272.745l-134.339 0.966c-18.272-1.026-32.586-16.055-32.672-34.304s14.088-33.411 32.349-34.607zM533.214 4.975c-24.423 0.024-47.498 11.17-62.659 30.264s-20.746 44.047-15.167 67.757l0.323 1.095c0.517 2.061 1.098 4.058 1.744 6.054l0.323 0.777c0.756 2.136 1.596 4.241 2.519 6.312 11.906 26.088 36.825 43.896 65.426 46.756h0.452c4.64 0.428 9.31 0.428 13.951 0h0.452c31.050-3.097 57.529-23.759 68.009-53.068l0.323-0.777c0.646-1.932 1.292-3.993 1.744-6.054l0.258-1.095c1.389-6.022 2.125-12.176 2.196-18.355 0-43.923-35.845-79.666-79.893-79.666zM1406.868 22.171c-44.109 0-79.886 35.618-79.957 79.602 1.724 42.753 36.984 76.526 79.893 76.526s78.168-33.774 79.893-76.526c0-43.858-35.845-79.602-79.828-79.602zM1551.799 136.228l-0.388 1.546-0.642 2.447c-0.626 2.246-1.29 4.479-2.002 6.698l-1.485 4.315-0.777 2.125c-0.666 1.748-1.355 3.487-2.066 5.216l-0.388 1.095c-0.892 2.107-1.839 4.19-2.842 6.247l-0.777 1.481c-0.753 1.513-1.531 3.015-2.325 4.508l-1.163 2.061c-2.273 3.969-4.685 7.858-7.234 11.657-0.843 1.236-1.705 2.46-2.583 3.671l-1.292 1.803c-2.712 3.557-5.579 6.995-8.59 10.304l-1.227 1.288-3.358 3.542-1.744 1.674c-1.619 1.63-3.3 3.198-5.038 4.701-1.688 1.5-3.41 2.96-5.166 4.379-1.098 0.966-2.325 1.868-3.488 2.769l-1.744 1.352c-3.576 2.692-7.284 5.207-11.109 7.535l-1.744 0.966c-1.366 0.814-2.744 1.609-4.133 2.384-0.713 0.387-1.421 0.837-2.196 1.159-1.28 0.667-2.571 1.312-3.875 1.932-6.76 3.348-13.78 6.148-20.99 8.372-0.065 0.129-0.262 0.193-0.388 0.258-2.182 0.67-4.379 1.292-6.588 1.868l-2.066 0.451c-6.149 1.587-12.411 2.707-18.73 3.349l-2.583 0.258c-1.612 0.158-3.227 0.287-4.844 0.386-0.777 0-1.485 0.129-2.261 0.193-7.152 0.328-14.319 0.135-21.443-0.579-0.839 0-1.744-0.193-2.648-0.258-4.692-0.462-9.352-1.215-13.951-2.254-1.615-0.322-3.165-0.644-4.715-1.095l-2.066-0.451c-2.21-0.594-4.406-1.239-6.588-1.932-0.19 0-0.325 0-0.452-0.129-4.203-1.304-8.342-2.809-12.401-4.508l-2.325-1.030-3.875-1.739-2.39-1.159-3.875-1.932-2.131-1.159c-1.385-0.783-2.762-1.577-4.134-2.383l-1.744-1.030-5.683-3.607-0.642-0.451-4.78-3.413-1.744-1.288-3.552-2.834c-1.787-1.405-3.511-2.887-5.166-4.444l-1.942-1.674c-2.836-2.623-5.572-5.351-8.202-8.179l-1.292-1.352c-1.477-1.666-2.921-3.362-4.327-5.088l-0.642-0.773c-1.217-1.477-2.401-2.98-3.552-4.508l-3.875-5.41-1.421-2.125c-0.785-1.172-1.563-2.353-2.325-3.542l-1.292-2.19-2.196-3.8c-0.388-0.644-0.839-1.352-1.163-2.061-0.798-1.491-1.573-2.994-2.325-4.508l-0.777-1.481c-0.969-2.061-1.937-4.122-2.777-6.183l-0.515-1.288-2.002-5.023-0.839-2.19-1.421-4.315-0.777-2.447c-0.65-2.226-1.271-4.459-1.873-6.698l-0.388-1.546h-82.025v493.13h146.287v-186.381c0-19.063 15.501-34.455 34.554-34.455h273.199v-272.229zM1616.256 477.368h-221.013v151.99h156.492zM1466.417 767.759v-69.555h-286.633v120.433l286.697-50.878zM236.118 891.025h874.494v-754.733h-437.57c-19.416 51.911-66.108 88.796-121.228 95.767l-1.679 0.193-3.746 0.386c-4.376 0.465-8.775 0.68-13.176 0.644l-6.782-0.193-2.713-0.193c-2.482-0.138-4.959-0.353-7.427-0.644-0.646 0-1.163-0.128-1.744-0.193-55.111-7.004-101.778-43.914-121.163-95.831h-157.267v259.929l206.74 0.128c19.101 0 34.586 15.441 34.586 34.488s-15.485 34.488-34.586 34.488l-206.675-0.128v118.179l134.403-0.966c18.526 0.726 33.189 15.877 33.258 34.364s-14.48 33.747-32.999 34.611l-134.726 0.966z" />
<glyph unicode="&#xe942;" horiz-adv-x="1335" d="M816.899 551.551c0-225.58-182.869-408.449-408.449-408.449s-408.449 182.869-408.449 408.449c0 225.58 182.869 408.449 408.449 408.449s408.449-182.869 408.449-408.449z" />
<glyph unicode="&#xe943;" horiz-adv-x="1335" d="M702.487 226.977c3.59-5.258 9.4-8.572 15.751-8.951 0.426-0.023 0.84-0.035 1.254-0.035 5.902 0 11.552 2.543 15.464 7.018l153.335 175.254c7.479 8.549 6.604 21.539-1.933 29.006-8.549 7.467-21.539 6.616-29.006-1.933l-135.835-155.245-39.752 58.391c-6.386 9.389-19.18 11.816-28.557 5.431-9.389-6.386-11.816-19.18-5.431-28.568z" />
<glyph unicode="&#xe944;" horiz-adv-x="1335" d="M330.556 328.215l80.022-0.575v-70.829l-61.636-0.046c-11.356 0-20.549-9.216-20.538-20.572 0-11.345 9.204-20.538 20.561-20.538 0 0 0 0 0.012 0l61.601 0.035v-175.507c0-11.356 9.204-20.561 20.561-20.561h109.131c5.143-44.009 42.64-78.273 87.995-78.273s82.84 34.264 87.983 78.273h345.123c9.297-38.947 44.4-68.010 86.177-68.010 41.754 0 76.823 29.052 86.12 68.010h69.367c11.356 0 20.549 9.204 20.549 20.561v202.637c0.012 0.265 0.046 0.529 0.046 0.805 0 0.242-0.023 0.46-0.046 0.702v5.201c0 2.612-0.483 5.189-1.45 7.605l-50.072 125.791c-3.118 7.812-10.689 12.944-19.099 12.944h-28.845v58.644c0 9.964-7.145 18.49-16.948 20.238l-194.583 34.655v21.976c0 11.356-9.204 20.561-20.561 20.561h-560.876c-11.356 0-20.561-9.204-20.561-20.561v-162.632l-79.722 0.575c-0.046 0-0.104 0-0.15 0-11.287 0-20.48-9.112-20.561-20.411-0.081-11.345 9.055-20.618 20.399-20.699zM628.276-17.529c-26.198 0-47.507 21.32-47.507 47.507 0 2.508 0.196 4.97 0.564 7.364 0.196 1.197 0.437 2.393 0.713 3.567 0.058 0.23 0.104 0.449 0.161 0.679 0.311 1.22 0.667 2.416 1.059 3.59 0.058 0.161 0.104 0.322 0.173 0.483 0.449 1.254 0.932 2.485 1.473 3.693 0.012 0.023 0.023 0.046 0.023 0.069 6.949 15.325 21.815 26.233 38.912 27.855 0.081 0 0.184 0.012 0.265 0.012 1.369 0.127 2.75 0.196 4.154 0.196 1.392 0 2.773-0.069 4.142-0.196 0.081 0 0.184-0.012 0.265-0.012 17.097-1.622 31.963-12.53 38.912-27.855 0.012-0.012 0.023-0.035 0.035-0.069 0.541-1.197 1.024-2.439 1.473-3.693 0.058-0.173 0.115-0.322 0.173-0.483 0.403-1.174 0.748-2.37 1.059-3.59 0.058-0.23 0.104-0.449 0.161-0.679 0.276-1.174 0.518-2.359 0.713-3.567 0.368-2.393 0.575-4.855 0.575-7.364 0-26.187-21.308-47.507-47.495-47.507zM1147.57-7.254c-26.198 0-47.507 21.285-47.507 47.449 0 26.198 21.308 47.507 47.507 47.507 26.152 0 47.449-21.308 47.449-47.507-0.012-26.164-21.297-47.449-47.449-47.449zM1233.724 60.744c-0.069 0.299-0.161 0.598-0.242 0.909-0.127 0.495-0.253 0.989-0.391 1.484-0.23 0.84-0.472 1.68-0.725 2.52-0.138 0.483-0.288 0.966-0.449 1.45-0.276 0.874-0.575 1.726-0.874 2.589-0.161 0.426-0.299 0.863-0.46 1.277-0.391 1.047-0.805 2.083-1.22 3.107-0.092 0.219-0.173 0.437-0.265 0.656-0.529 1.254-1.082 2.485-1.668 3.693-0.15 0.299-0.299 0.587-0.449 0.897-0.449 0.909-0.909 1.795-1.381 2.692-0.23 0.414-0.46 0.817-0.69 1.231-0.426 0.759-0.863 1.519-1.312 2.278-0.253 0.426-0.518 0.863-0.782 1.289-0.449 0.725-0.909 1.438-1.381 2.152-0.276 0.414-0.552 0.828-0.828 1.231-0.506 0.736-1.024 1.461-1.553 2.186-0.253 0.345-0.506 0.713-0.771 1.059-0.679 0.897-1.381 1.783-2.094 2.658-0.115 0.161-0.242 0.322-0.368 0.472-0.851 1.024-1.726 2.025-2.623 3.026-0.242 0.265-0.495 0.518-0.736 0.782-0.667 0.713-1.323 1.415-2.002 2.106-0.345 0.334-0.69 0.667-1.024 1.001-0.61 0.598-1.22 1.197-1.864 1.772-0.368 0.345-0.748 0.69-1.128 1.024-0.633 0.564-1.266 1.116-1.91 1.657-0.38 0.322-0.759 0.644-1.151 0.966-0.69 0.564-1.392 1.105-2.094 1.657-0.357 0.265-0.702 0.541-1.059 0.805-0.943 0.702-1.898 1.381-2.865 2.036-0.127 0.092-0.253 0.184-0.38 0.265-1.105 0.736-2.232 1.461-3.36 2.163-0.334 0.207-0.69 0.403-1.024 0.61-0.805 0.483-1.622 0.955-2.439 1.415-0.437 0.23-0.874 0.472-1.312 0.69-0.748 0.403-1.507 0.794-2.278 1.174-0.472 0.23-0.932 0.46-1.404 0.679-0.759 0.357-1.542 0.713-2.313 1.047-0.472 0.207-0.932 0.403-1.404 0.598-0.84 0.357-1.68 0.69-2.531 1.001-0.414 0.161-0.828 0.322-1.243 0.483-1.185 0.426-2.37 0.828-3.567 1.208-0.092 0.035-0.184 0.058-0.288 0.092-1.3 0.403-2.612 0.771-3.923 1.116-0.403 0.104-0.817 0.196-1.231 0.288-0.92 0.23-1.841 0.449-2.773 0.644-0.495 0.104-1.012 0.207-1.519 0.299-0.851 0.161-1.714 0.322-2.577 0.46-0.529 0.092-1.070 0.173-1.599 0.242-0.863 0.127-1.737 0.242-2.612 0.334-0.529 0.058-1.059 0.127-1.588 0.173-0.955 0.092-1.898 0.161-2.853 0.219-0.46 0.023-0.909 0.069-1.358 0.092-1.415 0.069-2.83 0.104-4.257 0.104s-2.853-0.035-4.257-0.104c-0.46-0.023-0.909-0.058-1.358-0.092-0.955-0.058-1.91-0.127-2.853-0.219-0.529-0.046-1.059-0.115-1.588-0.173-0.874-0.092-1.737-0.207-2.612-0.334-0.541-0.069-1.070-0.15-1.599-0.242-0.863-0.138-1.726-0.299-2.577-0.472-0.506-0.092-1.012-0.196-1.519-0.299-0.932-0.196-1.852-0.414-2.773-0.644-0.414-0.092-0.817-0.196-1.231-0.288-1.323-0.345-2.635-0.713-3.935-1.116-0.092-0.023-0.173-0.058-0.265-0.092-1.197-0.38-2.393-0.782-3.578-1.22-0.414-0.15-0.828-0.311-1.231-0.472-0.851-0.322-1.703-0.656-2.543-1.012-0.472-0.196-0.932-0.403-1.392-0.598-0.782-0.345-1.553-0.702-2.324-1.047-0.472-0.23-0.943-0.449-1.404-0.679-0.771-0.368-1.53-0.771-2.278-1.174-0.437-0.23-0.874-0.46-1.312-0.69-0.817-0.46-1.645-0.943-2.451-1.415-0.334-0.196-0.679-0.403-1.012-0.598-1.139-0.69-2.267-1.415-3.371-2.163-0.127-0.081-0.242-0.184-0.368-0.265-0.966-0.667-1.933-1.346-2.876-2.048-0.357-0.253-0.702-0.529-1.047-0.794-0.713-0.552-1.415-1.093-2.106-1.668-0.391-0.311-0.771-0.633-1.151-0.955-0.644-0.541-1.277-1.093-1.921-1.668-0.38-0.334-0.748-0.679-1.128-1.012-0.633-0.587-1.254-1.185-1.864-1.783-0.345-0.334-0.69-0.667-1.012-1.001-0.69-0.69-1.346-1.392-2.002-2.106-0.242-0.265-0.506-0.529-0.748-0.794-0.897-0.989-1.76-1.99-2.623-3.026-0.127-0.15-0.242-0.311-0.368-0.472-0.713-0.874-1.415-1.76-2.094-2.669-0.265-0.345-0.518-0.713-0.782-1.070-0.518-0.725-1.047-1.438-1.542-2.175-0.276-0.414-0.552-0.828-0.84-1.243-0.472-0.713-0.932-1.427-1.381-2.14-0.265-0.437-0.529-0.863-0.782-1.289-0.449-0.748-0.886-1.507-1.3-2.267-0.23-0.414-0.472-0.817-0.69-1.243-0.472-0.874-0.92-1.772-1.369-2.669-0.161-0.299-0.311-0.61-0.46-0.909-0.587-1.208-1.139-2.439-1.668-3.682-0.104-0.242-0.196-0.483-0.299-0.725-0.414-1.001-0.817-2.013-1.197-3.037-0.161-0.437-0.311-0.874-0.472-1.312-0.288-0.84-0.587-1.691-0.863-2.543-0.161-0.495-0.311-0.989-0.46-1.473-0.242-0.828-0.483-1.657-0.713-2.485-0.138-0.506-0.265-1.001-0.391-1.519-0.081-0.299-0.173-0.598-0.242-0.897h-48.772v294.038h86.959v-111.144c0-11.356 9.204-20.561 20.561-20.561h162.402v-162.31zM1272.027 264.175h-131.371v90.584h93.023zM1182.996 437.3v-41.432h-170.41v71.784zM451.699 510.832h519.766v-450.088h-260.084c-11.299 30.421-38.843 52.983-72.037 57.137-0.334 0.046-0.667 0.081-1.012 0.127-0.725 0.081-1.461 0.15-2.198 0.219-0.725 0.069-1.473 0.127-2.209 0.173-0.529 0.035-1.070 0.069-1.611 0.092-1.335 0.058-2.681 0.104-4.027 0.104-1.358 0-2.692-0.046-4.038-0.104-0.541-0.023-1.070-0.058-1.611-0.092-0.736-0.046-1.473-0.104-2.209-0.173-0.736-0.058-1.473-0.138-2.209-0.219-0.345-0.035-0.679-0.081-1.012-0.127-33.194-4.154-60.738-26.728-72.037-57.137h-93.46v154.992l122.868 0.092c11.356 0.012 20.549 9.216 20.538 20.572 0 11.356-9.204 20.549-20.561 20.549 0 0 0 0-0.012 0l-122.834-0.092v70.483l79.78-0.575c0.046 0 0.104 0 0.15 0 11.287 0 20.48 9.112 20.561 20.411 0.081 11.356-9.055 20.63-20.411 20.71l-80.079 0.575v142.371z" />
<glyph unicode="&#xe945;" horiz-adv-x="1424" d="M1424.225 448c0-282.77-229.23-512-512-512s-512 229.23-512 512c0 282.77 229.23 512 512 512s512-229.23 512-512z" />
<glyph unicode="&#xe946;" horiz-adv-x="1424" d="M913.956 624.676c-2.589 6.19-7.511 11.112-13.701 13.701l-659.975 276.047c-6.177 2.583-13.128 2.606-19.322 0.064s-11.124-7.442-13.705-13.621l-164.85-393.879c-2.583-6.177-2.606-13.128-0.064-19.322s7.442-11.124 13.621-13.705l660.119-276.047c3.116-1.257 6.447-1.894 9.807-1.875 3.267-0.019 6.504 0.618 9.519 1.875 6.208 2.487 11.148 7.376 13.701 13.557l164.705 393.879c2.564 6.177 2.615 13.111 0.144 19.326zM352.775 642.704l-240.279-98.939 117.255 280.086zM276.768 844.62l548.056-229.318-348.881-64.469zM381.765 599.437l61.728-90.574c5.627-8.32 15.653-12.512 25.528-10.673l107.881 19.903 102.4-250.375-547.624 229.318zM626.948 527.324l216.338 39.806-117.255-279.941z" />
<glyph unicode="&#xe947;" horiz-adv-x="1424" d="M334.026 197.769h-308.786c-13.939 0-25.239 11.3-25.239 25.239s11.3 25.239 25.239 25.239h308.786c13.939 0 25.239-11.3 25.239-25.239s-11.3-25.239-25.239-25.239z" />
<glyph unicode="&#xe948;" horiz-adv-x="1424" d="M199.031 306.226h-173.792c-13.939 0-25.239 11.3-25.239 25.239s11.3 25.239 25.239 25.239h173.792c13.939 0 25.239-11.3 25.239-25.239s-11.3-25.239-25.239-25.239z" />
<glyph unicode="&#xe949;" horiz-adv-x="1424" d="M1424.225 448c0-282.77-229.23-512-512-512s-512 229.23-512 512c0 282.77 229.23 512 512 512s512-229.23 512-512z" />
<glyph unicode="&#xe94a;" horiz-adv-x="1424" d="M913.956 624.676c-2.589 6.19-7.511 11.112-13.701 13.701l-659.975 276.047c-6.177 2.583-13.128 2.606-19.322 0.064s-11.124-7.442-13.705-13.621l-164.85-393.879c-2.583-6.177-2.606-13.128-0.064-19.322s7.442-11.124 13.621-13.705l660.119-276.047c3.116-1.257 6.447-1.894 9.807-1.875 3.267-0.019 6.504 0.618 9.519 1.875 6.208 2.487 11.148 7.376 13.701 13.557l164.705 393.879c2.564 6.177 2.615 13.111 0.144 19.326zM352.775 642.704l-240.279-98.939 117.255 280.086zM276.768 844.62l548.056-229.318-348.881-64.469zM381.765 599.437l61.728-90.574c5.627-8.32 15.653-12.512 25.528-10.673l107.881 19.903 102.4-250.375-547.624 229.318zM626.948 527.324l216.338 39.806-117.255-279.941z" />
<glyph unicode="&#xe94b;" horiz-adv-x="1424" d="M334.026 197.769h-308.786c-13.939 0-25.239 11.3-25.239 25.239s11.3 25.239 25.239 25.239h308.786c13.939 0 25.239-11.3 25.239-25.239s-11.3-25.239-25.239-25.239z" />
<glyph unicode="&#xe94c;" horiz-adv-x="1424" d="M199.031 306.226h-173.792c-13.939 0-25.239 11.3-25.239 25.239s11.3 25.239 25.239 25.239h173.792c13.939 0 25.239-11.3 25.239-25.239s-11.3-25.239-25.239-25.239z" />
<glyph unicode="&#xe94d;" horiz-adv-x="1259" d="M1259.255 399.97c0-256.244-207.727-463.971-463.971-463.971s-463.971 207.727-463.971 463.971c0 256.244 207.727 463.971 463.971 463.971s463.971-207.727 463.971-463.971z" />
<glyph unicode="&#xe94e;" horiz-adv-x="1259" d="M435.956 790.863c8.126 5.064 15.968 10.81 23.071 17.921 18.582 18.604 30.657 41.731 34.009 65.086 3.552 24.891-3.069 47.165-18.638 62.754-30.316 30.324-89.328 23.099-127.684-15.39-6.506-6.514-11.791-13.626-16.507-20.937-4.006 5.718-8.467 11.265-13.609 16.414-36.765 36.839-94.101 43.808-123.167 14.764-29.89-29.954-23.27-85.255 14.717-123.317 6.847-6.856 14.433-12.403 22.304-17.267h-225.877v-488.943h653.48v488.915zM629.642 586.388h-284.122v176.029h284.122zM366.801 901.123c16.65 16.67 38.186 26.626 57.648 26.626 8.495 0 20.599-1.934 29.861-11.236 9.092-9.075 12.842-22.814 10.598-38.602-2.472-17.296-11.677-34.734-25.969-49.014-16.621-16.698-38.186-26.655-57.62-26.655-8.524 0-20.627 1.934-29.89 11.265-1.847 1.821-3.211 4.011-4.603 6.145 4.631 15.191 4.148 32.543-1.193 49.668 4.461 11.066 11.45 22.075 21.167 31.804zM213.517 911.364c8.751 8.762 20.144 10.582 28.185 10.582 18.496 0 38.981-9.473 54.807-25.346 8.609-8.648 14.888-18.348 19.178-28.134-4.631-17.011-4.773-33.965 0.029-48.928-1.335-2.105-2.699-4.21-4.489-6.031-8.751-8.762-20.144-10.582-28.185-10.582-18.468 0-38.953 9.473-54.807 25.346-26.935 26.968-33.555 64.233-14.718 83.093zM331.314 793.395c0 0 0 0 0 0s0 0 0 0c0.994-0.939 2.131-1.65 3.125-2.532h-6.251c1.023 0.882 2.159 1.593 3.125 2.532zM317.108 762.417v-176.029h-284.122v176.029zM32.987 557.941h284.122v-227.574h-284.122zM345.52 330.367v227.574h284.122v-227.574z" />
<glyph unicode="&#xe94f;" glyph-name="exclamation-mark" d="M512 960c-282.481 0-512-229.519-512-512s229.519-512 512-512c282.481 0 512 229.519 512 512s-229.519 512-512 512zM512 911.238c256.128 0 463.238-207.11 463.238-463.238s-207.11-463.238-463.238-463.238c-256.128 0-463.238 207.11-463.238 463.238s207.11 463.238 463.238 463.238zM504.949 810.847h70.67l-10.467-334.102h-50.441zM509.905 416.19l59.619-0.19v-65.085h-59.619z" />
<glyph unicode="&#xe950;" horiz-adv-x="1247" d="M932.103 493.949c0-257.393-208.658-466.051-466.051-466.051s-466.051 208.658-466.051 466.051c0 257.393 208.658 466.051 466.051 466.051s466.051-208.658 466.051-466.051z" />
<glyph unicode="&#xe951;" horiz-adv-x="1247" d="M564.513 461.128h-291.082c-13.246 0-23.995-11.755-23.995-26.256 0-14.514 10.749-26.256 23.995-26.256h267.652c6.51 18.3 14.331 35.871 23.43 52.513z" />
<glyph unicode="&#xe952;" horiz-adv-x="1247" d="M899.299-64c-191.843 0-347.914 156.074-347.914 347.909 0 191.824 156.071 347.886 347.914 347.886 191.81 0 347.881-156.062 347.881-347.886 0-191.835-156.071-347.909-347.881-347.909zM899.301 589.035c-168.273 0-305.157-136.885-305.157-305.125 0-168.252 136.883-305.161 305.157-305.161 168.225 0 305.108 136.909 305.108 305.161 0 168.24-136.871 305.125-305.108 305.125z" />
<glyph unicode="&#xe953;" horiz-adv-x="1247" d="M928.112 326.76v124.288c0 12.829-10.405 23.208-23.252 23.208-12.814 0-23.219-10.379-23.219-23.208v-124.277c-10.328-7.284-17.096-19.271-17.096-32.866 0-2.57 0.274-5.075 0.734-7.525l-110.442-114.106c-8.915-9.231-8.674-23.93 0.559-32.822 4.523-4.353 10.339-6.529 16.155-6.529 6.089 0 12.157 2.373 16.724 7.076l110.453 114.15c2.037-0.295 4.063-0.514 6.144-0.514 22.299 0 40.359 18.024 40.359 40.27-0.011 13.595-6.758 25.571-17.118 32.855z" />
<glyph unicode="&#xe954;" horiz-adv-x="1247" d="M522.78 301.31c0 14.115 0.866 27.994 2.348 41.664h-159.608c-13.347 0-24.187-11.752-24.187-26.263 0-14.498 10.84-26.25 24.187-26.25h157.522c-0.114 3.612-0.262 7.224-0.262 10.849z" />
<glyph unicode="&#xe955;" horiz-adv-x="1247" d="M533.753 224.821h-76.947c-13.021 0-23.575-11.74-23.575-26.25s10.554-26.263 23.575-26.263h94.579c-7.099 16.824-12.976 34.365-17.631 52.513z" />
<glyph unicode="&#xe956;" horiz-adv-x="1280" d="M865.524 368.762c0-239.008-193.754-432.762-432.762-432.762s-432.762 193.754-432.762 432.762c0 239.008 193.754 432.762 432.762 432.762s432.762-193.754 432.762-432.762z" />
<glyph unicode="&#xe957;" horiz-adv-x="1280" d="M968.482 927.415c-14.372 22.043-37.367 32.585-59.405 32.585-22.995 0-45.991-10.542-59.405-32.585l-301.814-467.685c-30.66-46.96 3.833-109.254 59.405-109.254h601.712c56.53 0 90.065 62.294 59.405 109.254zM1229.096 409.895c-1.916-3.833-7.665-12.459-20.121-12.459h-601.712c-12.456 0-18.205 8.625-20.121 12.459s-5.749 13.417 0.958 23.959l300.856 467.685c5.749 9.584 14.372 10.542 19.163 10.542s13.414-0.958 19.163-10.542l300.856-467.685c7.665-10.542 3.833-20.126 0.958-23.959z" />
<glyph unicode="&#xe958;" horiz-adv-x="1280" d="M901.818 508.952h-11.636c-8.312 0-12.468-4.252-12.468-12.757v-11.056c0-8.505 4.156-12.757 12.468-12.757h11.636c8.312 0 12.468 4.252 12.468 12.757v11.056c0 7.654-4.156 12.757-12.468 12.757z" />
<glyph unicode="&#xe959;" horiz-adv-x="1280" d="M900.341 716.19c-24.65 0-42.663-8.754-53.092-16.535-7.585-4.863-7.585-11.672-2.844-19.453l5.688-8.754c4.74-7.781 12.325-7.781 20.858-3.891 5.688 2.918 15.169 6.809 25.598 6.809 18.961 0 33.182-12.644 33.182-29.179 0-35.988-55.936-47.66-55.936-91.429v-5.836c0-9.726 4.74-14.59 14.221-14.59h13.273c8.533 0 12.325 2.918 13.273 9.726l0.948 5.836c3.792 35.015 59.728 44.742 59.728 100.182 0 42.796-36.027 67.112-74.897 67.112z" />
<glyph unicode="&#xe95a;" horiz-adv-x="723" d="M602.353 658.824c0-166.335-134.841-301.176-301.176-301.176s-301.176 134.841-301.176 301.176c0 166.335 134.841 301.176 301.176 301.176s301.176-134.841 301.176-301.176z" />
<glyph unicode="&#xe95b;" horiz-adv-x="723" d="M252.988 195.012c8.035 28.106 28.106 54.212 60.235 78.306l72.282-48.188 60.235-12.047 120.471 60.235c24.094-24.094 40.153-48.188 48.188-72.282 12.047-36.141 24.094-150.588 0-189.657-24.094-39.081-72.282-75.378-180.706-75.378s-156.612 36.298-180.706 75.378c-24.094 39.069-12.047 141.469 0 183.633z" />
<glyph unicode="&#xe95c;" horiz-adv-x="723" d="M317.621 247.802c21.978-21.115 49.166-36.018 78.788-43.189l-32.021-118.182c-2.117-7.777 0.569-16.070 6.843-21.131l53.754-43.249c7.317-5.908 17.765-5.908 25.082 0l53.742 43.249c6.277 5.060 8.975 13.408 6.831 21.203l-32.611 118.567c29.021 7.332 55.626 22.111 77.186 42.875 0 5.879 14.011 5.879 26.226 31.828 18.309 28.426 28.034 61.528 28.009 95.34 0 96.654-77.655 175.285-173.104 175.285-95.437 0-173.116-78.631-173.116-175.285 0-35.274 10.421-68.090 28.19-95.605 9.758-6.192 11.951-25.684 26.202-31.708zM437.513 63.759l-30.901 24.865 26.588 98.039h8.156l26.997-98.063zM436.308 509.934c73.294 0 132.915-60.476 132.915-134.819 0-74.403-59.633-134.927-132.915-134.927-73.294 0-132.939 60.524-132.939 134.927 0.012 74.342 59.645 134.819 132.939 134.819z" />
<glyph unicode="&#xe95d;" horiz-adv-x="723" d="M239.616 603.287c3.644-3.897 8.697-6.172 14.030-6.317s10.502 1.853 14.353 5.546c8.072 7.686 8.421 20.492 0.795 28.6l-65.452 69.572c-3.648 3.894-8.701 6.167-14.034 6.314s-10.504-1.844-14.361-5.531c-8.075-7.706-8.419-20.483-0.771-28.612l65.428-69.572zM297.237 546.292c11.127 0.093 20.086 9.16 20.046 20.287 0 5.325-2.096 10.541-5.843 14.312-7.469 7.529-20.926 7.529-28.419 0-3.735-3.771-5.939-8.987-5.939-14.312 0-5.301 2.205-10.529 5.939-14.3 3.759-3.771 8.951-5.987 14.216-5.987z" />
<glyph unicode="&#xe95e;" horiz-adv-x="723" d="M431.815 588.421c3.735 3.771 5.939 8.987 5.939 14.3 0 5.325-2.205 10.541-5.939 14.312-7.397 7.529-20.926 7.529-28.419 0-3.776-3.802-5.879-8.954-5.843-14.312 0-5.301 2.12-10.529 5.843-14.3 3.759-3.771 8.927-5.903 14.216-5.903 5.373 0 10.541 2.132 14.203 5.903zM367.556 757.007c10.597 3.479 16.39 14.866 12.963 25.48-3.915 12.252-6.024 29.335 6.24 41.213 11.565 11.204 32.587 14.673 50.031 8.252 12.047-4.421 26.949-14.999 29.551-40.189 2.458-23.709-9.541-37.045-29.298-56.85-15.926-15.95-33.997-34.033-39.225-61.681-1.127-5.904 0.429-12.004 4.246-16.648s9.501-7.35 15.512-7.386c9.457 0 17.878 6.746 19.721 16.444 2.903 15.348 14.577 27.046 28.094 40.574 20.263 20.299 45.49 45.562 40.924 89.726-3.65 35.346-23.974 62.331-55.73 74.005-32.105 11.806-68.945 4.951-91.69-17.107-20.926-20.263-26.985-50.441-16.625-82.787 1.608-5.096 5.185-9.338 9.935-11.786s10.281-2.897 15.364-1.249z" />
<glyph unicode="&#xe95f;" horiz-adv-x="723" d="M562.26 546.388c5.308-0.009 10.397 2.119 14.119 5.903 3.747 3.759 5.939 8.975 5.939 14.288 0 5.325-2.193 10.541-5.939 14.312-7.469 7.529-20.829 7.529-28.419 0-7.779-7.951-7.779-20.661 0-28.612 3.759-3.771 8.951-5.903 14.3-5.903zM598.353 624.851c5.325 0 10.638 2.108 14.577 6.313 6.987 7.409 18.384 9.879 31.599 12.746 20.902 4.53 49.538 10.734 65.524 42.755 12.818 25.672 10.638 52.995-5.963 74.969-16.721 22.106-44.815 33.575-69.909 28.527-23.371-4.674-40.767-22.648-47.767-49.309-2.837-10.77 3.55-21.81 14.3-24.721 10.734-2.867 21.733 3.602 24.564 14.396 3.048 11.613 8.674 18.312 16.733 19.938 10.083 2 22.709-3.602 30.106-13.348 4.987-6.602 9.397-17.565 2.048-32.286-7.035-14.047-17.902-16.986-38.093-21.359-17.251-3.735-36.792-7.975-52.32-24.492-7.62-8.139-7.265-20.896 0.795-28.6 3.879-3.71 8.83-5.542 13.806-5.542z" />
<glyph unicode="&#xe960;" glyph-name="favourite" horiz-adv-x="1110" d="M856.827-46.789c-7.985-0.037-15.851 1.854-22.879 5.498l-277.633 140.737c-0.94 0.435-2.034 0.435-2.974 0l-277.748-140.737c-16.458-8.341-36.417-6.971-51.475 3.533s-22.599 28.319-19.449 45.944l52.735 298.186c0.223 0.92-0.082 1.885-0.801 2.529l-224.669 211.435c-13.309 12.44-18.107 31.068-12.375 48.040s20.999 29.339 39.372 31.894l310.808 43.98c1.024 0.080 1.932 0.662 2.402 1.539l138.874 270.808c8.224 16.037 25.211 26.192 43.813 26.192s35.589-10.155 43.813-26.192l139.217-271.248c0.471-0.877 1.379-1.459 2.402-1.539l310.693-43.98c18.393-2.521 33.694-14.874 39.453-31.853s0.972-35.626-12.342-48.082l-225.813-210.995c-0.719-0.645-1.024-1.609-0.801-2.529l53.536-298.186c2.424-13.65-1.531-27.634-10.81-38.227s-22.942-16.72-37.349-16.749zM554.828 143.755c7.979-0.004 15.836-1.892 22.879-5.498l277.633-141.067c0.981-0.715 2.337-0.715 3.317 0 0.988 0.559 1.459 1.689 1.144 2.749l-53.307 299.066c-2.684 15.146 2.531 30.595 13.956 41.341l225.355 211.435c0.891 0.732 1.171 1.943 0.686 2.969-0.34 1.048-1.273 1.817-2.402 1.979l-310.808 43.98c-15.956 2.178-29.752 11.814-36.835 25.728l-138.874 270.698c-0.53 0.988-1.589 1.609-2.745 1.609s-2.216-0.621-2.745-1.609l-138.988-271.138c-7.013-13.923-20.783-23.572-36.72-25.728l-310.808-43.98c-1.13-0.162-2.063-0.931-2.402-1.979-0.485-1.026-0.205-2.237 0.686-2.969l225.012-210.995c11.584-10.661 16.937-26.136 14.299-41.341l-53.422-298.406c-0.185-1.075 0.309-2.153 1.258-2.749 0.981-0.715 2.337-0.715 3.317 0l277.633 140.407c7.043 3.605 14.899 5.493 22.879 5.498z" />
<glyph unicode="&#xe961;" horiz-adv-x="795" d="M778.75 325.375c0-215.046-174.329-389.375-389.375-389.375s-389.375 174.329-389.375 389.375c0 215.046 174.329 389.375 389.375 389.375s389.375-174.329 389.375-389.375z" />
<glyph unicode="&#xe962;" horiz-adv-x="795" d="M504.538 955.174c-9.863 0-18.861-5.292-23.222-13.646l-73.65-141.088c-0.25-0.457-0.721-0.751-1.264-0.793l-164.803-22.901c-9.742-1.331-17.848-7.783-20.887-16.624s-0.48-18.541 6.577-25.021l119.13-110.154c0.381-0.336 0.525-0.828 0.407-1.307l-27.956-155.334c-1.67-9.182 2.341-18.478 10.326-23.95s18.565-6.188 27.292-1.842l147.258 73.329c0.498 0.226 1.087 0.226 1.585 0l147.215-73.329c3.726-1.898 7.891-2.868 12.125-2.849 7.639 0.015 14.895 3.201 19.816 8.719s7.005 12.812 5.72 19.923l-28.385 155.334c-0.118 0.479 0.047 0.971 0.428 1.307l119.73 109.919c7.059 6.489 9.609 16.198 6.555 25.043s-11.177 15.289-20.93 16.602l-164.739 22.901c-0.543 0.042-1.014 0.357-1.264 0.814l-73.822 141.303c-4.361 8.354-13.38 13.646-23.243 13.646zM504.623 931.181c0.613 0 1.176-0.302 1.457-0.814l73.672-140.317c3.757-7.212 11.074-12.196 19.537-13.325l164.846-22.794c0.599-0.083 1.106-0.485 1.285-1.028 0.257-0.532 0.109-1.163-0.364-1.542l-119.537-109.597c-6.060-5.57-8.836-13.572-7.412-21.422l28.278-155.013c0.167-0.549-0.076-1.124-0.6-1.414-0.52-0.37-1.236-0.37-1.757 0l-147.258 73.115c-3.736 1.869-7.914 2.847-12.147 2.849-4.232-0.002-8.39-0.981-12.125-2.849l-147.258-72.772c-0.52-0.37-1.236-0.37-1.757 0-0.503 0.309-0.762 0.857-0.664 1.414l28.321 154.67c1.399 7.881-1.439 15.897-7.584 21.422l-119.345 109.362c-0.473 0.379-0.621 1.011-0.364 1.542 0.18 0.543 0.686 0.945 1.285 1.028l164.846 22.794c8.453 1.118 15.753 6.13 19.473 13.346l73.715 140.531c0.281 0.512 0.843 0.814 1.457 0.814z" />
<glyph unicode="&#xe963;" glyph-name="finish" horiz-adv-x="837" d="M265.998 960c-21.129 0-39.929-10.145-52.462-25.53h-188.006c-0.008 0-0.017 0-0.027 0-14.085 0-25.503-11.418-25.503-25.503 0-0.009 0-0.019 0-0.028v0.001-947.41c0-0.008 0-0.018 0-0.027 0-14.085 11.418-25.503 25.503-25.503 0.009 0 0.019 0 0.028 0h612.495c0.002 0 0.003 0 0.005 0 7.323 0 13.925 3.087 18.576 8.030l0.012 0.013 173.913 185.276c4.28 4.537 6.917 10.666 6.936 17.41v762.212c0 0.008 0 0.018 0 0.027 0 14.068-11.391 25.476-25.454 25.503h-184.468c-12.532 15.385-31.333 25.53-52.462 25.53zM51.060 883.484h147.793c4.3-33.259 32.823-59.545 67.145-59.545h309.089c34.322 0 62.845 26.286 67.145 59.545h144.251v-697.055h-140.046c-0.008 0-0.018 0-0.027 0-14.068 0-25.476-11.391-25.503-25.454v-173.916h-569.848zM251.388 883.484h338.382c-2.843-5.091-8.064-8.485-14.683-8.485h-309.089c-6.62 0-11.788 3.394-14.61 8.485zM335.283 733.625c-8.647-0.291-16.276-4.413-21.279-10.714l-0.045-0.058-65.153-80.279-33.204 26.342c-4.801 3.86-10.97 6.196-17.684 6.196-15.65 0-28.337-12.687-28.337-28.337 0-9.013 4.208-17.043 10.766-22.233l0.059-0.045 55.192-43.755c4.788-3.825 10.93-6.138 17.612-6.138 8.862 0 16.775 4.069 21.971 10.44l0.041 0.051 82.714 102.046c4.097 4.88 6.586 11.231 6.586 18.163 0 15.65-12.687 28.337-28.337 28.337-0.317 0-0.633-0.005-0.948-0.016l0.046 0.001zM473.927 716.285c-0.119 0.002-0.26 0.003-0.401 0.003-15.65 0-28.337-12.687-28.337-28.337s12.687-28.337 28.337-28.337c0.141 0 0.282 0.001 0.422 0.003h206.948c0.119-0.002 0.26-0.003 0.401-0.003 15.65 0 28.337 12.687 28.337 28.337s-12.687 28.337-28.337 28.337c-0.141 0-0.282-0.001-0.422-0.003h0.021zM335.283 529.607c-8.647-0.291-16.276-4.413-21.279-10.714l-0.045-0.058-65.153-80.279-33.204 26.342c-4.801 3.86-10.97 6.196-17.684 6.196-15.65 0-28.337-12.687-28.337-28.337 0-9.013 4.208-17.043 10.766-22.233l0.059-0.045 55.192-43.755c4.788-3.825 10.93-6.138 17.612-6.138 8.862 0 16.775 4.069 21.971 10.44l0.041 0.051 82.714 102.046c4.097 4.88 6.586 11.231 6.586 18.163 0 15.65-12.687 28.337-28.337 28.337-0.317 0-0.633-0.005-0.948-0.016l0.046 0.001zM473.927 512.267c-0.119 0.002-0.26 0.003-0.401 0.003-15.65 0-28.337-12.687-28.337-28.337s12.687-28.337 28.337-28.337c0.141 0 0.282 0.001 0.422 0.003h206.948c0.119-0.002 0.26-0.003 0.401-0.003 15.65 0 28.337 12.687 28.337 28.337s-12.687 28.337-28.337 28.337c-0.141 0-0.282-0.001-0.422-0.003h0.021zM335.283 325.589c-8.647-0.291-16.276-4.413-21.279-10.714l-0.045-0.058-65.153-80.279-33.204 26.342c-4.801 3.86-10.97 6.196-17.684 6.196-15.65 0-28.337-12.687-28.337-28.337 0-9.013 4.208-17.043 10.766-22.233l0.059-0.045 55.192-43.681c4.788-3.825 10.93-6.138 17.612-6.138 8.862 0 16.775 4.069 21.971 10.44l0.041 0.051 82.714 101.972c4.097 4.88 6.586 11.231 6.586 18.163 0 15.65-12.687 28.337-28.337 28.337-0.317 0-0.633-0.005-0.948-0.016l0.046 0.001zM473.927 308.323c-0.119 0.002-0.26 0.003-0.401 0.003-15.65 0-28.337-12.687-28.337-28.337s12.687-28.337 28.337-28.337c0.141 0 0.282 0.001 0.422 0.003h206.948c0.119-0.002 0.26-0.003 0.401-0.003 15.65 0 28.337 12.687 28.337 28.337s-12.687 28.337-28.337 28.337c-0.141 0-0.282-0.001-0.422-0.003h0.021zM671.894 135.443h94.52l-94.52-100.57z" />
<glyph unicode="&#xe964;" glyph-name="football" horiz-adv-x="1023" d="M511.29-64c-282.63 0-511.29 230.080-511.29 512.71s228.66 511.29 511.29 511.29c313.875 0 553.897-281.209 505.609-590.824-38.347-248.544-252.804-433.176-505.609-433.176zM955.828 445.87c-22.724-39.767-52.549-76.693-85.215-109.359 2.84-51.129 1.42-102.258-8.521-153.387 25.564 5.681 53.97 15.623 66.752 35.506 32.666 56.81 49.709 100.838 56.81 166.169-2.841 26.985-11.362 46.868-29.825 61.071zM910.38 708.616c1.42-9.942 1.42-19.883 1.42-31.245 35.506-59.65 53.97-126.402 56.81-195.994 7.101-5.681 12.782-11.362 19.884-17.043-2.84 86.635-29.825 171.85-78.114 244.283zM721.487 876.205c-18.463 2.84-38.347 1.42-56.81-4.261 32.666-32.666 58.23-72.433 76.693-113.62 48.288-8.521 93.737-25.564 134.924-52.549 0 19.883-1.42 41.187-5.681 56.81-41.187 46.868-92.316 85.215-149.126 113.62zM403.351 913.132c5.681-2.84 12.782-7.101 18.463-11.362 69.592 11.362 140.605 9.942 208.777-5.681 7.101 2.84 14.203 5.681 19.884 8.521-79.534 24.144-166.169 26.985-247.123 8.521zM306.774 771.107c21.304 41.187 48.288 78.114 80.954 110.779-18.463 7.101-36.926 8.521-58.23 7.101-56.81-24.144-107.939-58.23-151.967-100.838-9.942-15.623-11.362-38.347-9.942-58.23 42.607 25.564 89.476 38.347 139.184 41.187zM680.3 36.838c-5.681-14.202-12.782-29.825-21.304-42.607 89.476 29.825 169.010 85.215 227.24 159.068-11.362-2.84-24.144-5.681-36.926-7.101-42.607-55.39-102.258-89.476-169.010-109.359zM593.664-21.393c21.304 12.782 38.347 35.506 48.288 58.23-46.868 8.522-92.316 22.724-133.503 46.868-48.288-21.304-97.997-35.506-150.546-42.607 11.362-21.304 26.985-41.187 45.448-56.81 62.491-14.202 127.822-17.043 190.313-5.681zM340.86 2.752c-8.521 12.782-15.623 25.565-21.304 39.767-63.911 25.565-119.301 65.332-161.908 120.721-11.362 2.841-24.144 7.101-36.926 11.362 55.39-78.114 130.663-137.764 220.139-171.85zM82.374 239.933c14.202-18.463 41.187-29.825 65.331-38.347-4.261 51.129-2.84 102.258 5.681 151.967-31.245 36.926-58.23 76.693-80.954 117.881-21.304-18.463-31.245-45.448-35.506-73.853 5.681-53.97 21.304-107.939 45.448-157.648zM134.924 702.935c-1.42 11.362-2.84 22.724-2.84 34.086-55.39-73.853-88.055-159.068-95.157-251.384 7.101 8.522 15.623 15.623 25.564 22.724 11.362 68.172 32.666 137.764 72.433 194.574zM933.104 477.115c-1.42 65.331-18.463 127.822-52.549 184.632-42.607 31.245-90.896 52.549-144.865 61.071l-86.635-110.779c26.985-62.491 44.028-129.243 55.39-195.994l143.445-52.549c32.666 34.086 62.491 71.012 85.215 113.62zM511.29 308.105c55.39 29.825 109.359 63.911 157.648 102.258-9.942 63.911-25.565 126.402-51.129 186.053h-187.473c-29.825-55.39-51.129-115.040-65.331-176.111 44.028-44.028 93.736-79.534 146.286-112.2zM399.090 613.459l-90.896 123.562c-51.129-4.261-99.417-18.463-142.025-49.709-38.347-53.969-58.23-122.141-69.592-187.473 21.304-42.607 49.709-83.795 80.954-120.721l153.387 48.288c14.202 65.331 38.347 126.402 68.172 186.053zM338.019 756.904l89.476-124.982h193.154l88.055 112.2c-19.884 44.028-45.448 86.635-83.795 116.46-65.332 15.623-133.503 17.043-200.255 7.101-35.506-31.245-63.911-69.592-86.635-110.779zM835.107 330.829l-143.445 52.549c-51.129-39.767-106.519-75.273-163.329-105.098l-1.42-164.749c42.607-24.144 90.896-38.347 139.184-45.448 62.491 18.463 119.301 49.709 157.648 102.258 12.782 52.549 15.623 106.519 11.362 160.488zM184.632 184.544c39.767-51.129 90.896-88.055 150.546-110.779 53.969 5.681 106.519 19.883 156.227 41.187l2.84 163.329c-55.39 34.086-107.939 71.012-153.387 116.46l-153.387-49.709c-8.521-52.549-9.942-106.519-2.84-160.488z" />
<glyph unicode="&#xe965;" horiz-adv-x="1123" d="M1123.097 530.581c0-237.162-192.258-429.419-429.419-429.419s-429.419 192.258-429.419 429.419c0 237.162 192.258 429.419 429.419 429.419s429.419-192.258 429.419-429.419z" />
<glyph unicode="&#xe966;" horiz-adv-x="1123" d="M457.698 180.271c14.77 0 26.79 12.020 26.79 26.79 0 14.763-12.020 26.783-26.79 26.783s-26.79-12.020-26.79-26.783c0-14.77 12.020-26.79 26.79-26.79zM584.006 148.653h-151.903l-52.078 58.407 52.078 58.401h151.903zM600.304 298.050h-10.865v133.106c0 8.984-7.314 16.298-16.298 16.298h-31.238v58.401c0 8.984-7.314 16.298-16.298 16.298h-75.941c-6.573 0-12.461-3.918-15.014-9.969-2.126-5.052-1.589-10.777 1.433-15.34 3.029-4.563 8.108-7.286 13.582-7.286h59.643v-42.103h-91.119c-6.567 0-12.461-3.918-15.014-9.969-2.126-5.046-1.589-10.777 1.44-15.34s8.108-7.286 13.575-7.286h138.654v-116.808h-132.040c-4.652 0-9.093-1.983-12.169-5.453l-66.631-74.692c-5.507-6.18-5.514-15.51 0-21.697l66.631-74.698c3.097-3.463 7.538-5.446 12.169-5.446h132.040v-116.808h-327.478c-6.567 0-12.468-3.911-15.021-9.962-2.126-5.046-1.589-10.784 1.44-15.347 3.035-4.563 8.108-7.28 13.582-7.28h343.776c8.984 0 16.298 7.307 16.298 16.298v133.099h10.865c8.984 0 16.298 7.307 16.298 16.298v149.397c0 8.984-7.314 16.291-16.298 16.291zM410.441 551.305c-2.017 0.856-4.142 1.297-6.322 1.297-6.573 0-12.475-3.918-15.028-9.982l-245.948-583.769c-1.691-4.013-1.718-8.441-0.075-12.475s4.754-7.185 8.767-8.876c2.010-0.849 4.142-1.277 6.322-1.277 6.573 0 12.475 3.911 15.028 9.969l245.942 583.776c3.497 8.285-0.401 17.853-8.685 21.337zM112.611-0.744h-28.406c-28.453 0-51.61 23.157-51.61 51.617v368.162c6.383-2.716 13.595-4.176 20.732-4.176h248.108c6.58 0 12.475 3.918 15.021 9.969 2.126 5.046 1.589 10.777-1.44 15.34s-8.101 7.287-13.582 7.287h-248.155c-11.408 0-20.685 9.283-20.685 20.678v0.693c0 11.429 9.303 20.732 20.732 20.732h279.583c6.573 0 12.468 3.918 15.021 9.969 2.126 5.046 1.589 10.777-1.44 15.34s-8.101 7.286-13.582 7.286h-279.583c-29.445 0-53.328-23.883-53.328-53.233v-418.047c0-46.435 37.777-84.206 84.206-84.206h28.406c6.573 0 12.468 3.911 15.014 9.969 2.126 5.046 1.589 10.777-1.44 15.34-3.022 4.563-8.101 7.28-13.575 7.28z" />
<glyph unicode="&#xe967;" glyph-name="inactive-arrow-right" horiz-adv-x="578" d="M65.957 959.968c-36.411-0.010-65.924-29.529-65.924-65.942 0-18.524 7.638-35.263 19.936-47.242l398.845-398.845-398.831-398.702c-12.504-12.019-20.271-28.885-20.271-47.566 0-36.419 29.523-65.942 65.942-65.942 18.681 0 35.547 7.768 47.545 20.25l0.021 0.022 445.449 445.32c11.966 11.939 19.369 28.446 19.369 46.683s-7.403 34.744-19.367 46.681l-445.45 445.321c-11.992 12.318-28.735 19.96-47.262 19.961v0z" />
<glyph unicode="&#xe968;" d="M0 960h1024v-1024h-1024v1024z" />
<glyph unicode="&#xe969;" d="M277.333 682.667h213.333v-213.333h-213.333v213.333z" />
<glyph unicode="&#xe96a;" d="M277.333 426.667h213.333v-213.333h-213.333v213.333z" />
<glyph unicode="&#xe96b;" d="M533.333 682.667h213.333v-213.333h-213.333v213.333z" />
<glyph unicode="&#xe96c;" d="M533.333 426.667h213.333v-213.333h-213.333v213.333z" />
<glyph unicode="&#xe96d;" d="M0 960h1024v-1024h-1024v1024z" />
<glyph unicode="&#xe96e;" d="M362.667 682.667h426.667v-64h-426.667v64z" />
<glyph unicode="&#xe96f;" d="M362.667 490.667h426.667v-64h-426.667v64z" />
<glyph unicode="&#xe970;" d="M234.667 682.667h64v-64h-64v64z" />
<glyph unicode="&#xe971;" d="M234.667 490.667h64v-64h-64v64z" />
<glyph unicode="&#xe972;" d="M234.667 298.667h64v-64h-64v64z" />
<glyph unicode="&#xe973;" d="M362.667 298.667h426.667v-64h-426.667v64z" />
<glyph unicode="&#xe974;" glyph-name="light-gray-arrow-thin" horiz-adv-x="326" d="M11.891 959.993c-6.653-0.353-11.915-5.834-11.915-12.544 0-2.449 0.701-4.734 1.913-6.666l-0.031 0.052 294.5-492.845-294.5-492.845c-1.115-1.84-1.775-4.063-1.775-6.44 0-6.941 5.627-12.568 12.568-12.568 4.565 0 8.561 2.433 10.762 6.074l0.032 0.056 302.178 505.723-302.178 505.748c-2.213 3.777-6.252 6.273-10.874 6.273-0.239 0-0.477-0.007-0.712-0.020l0.033 0.001z" />
<glyph unicode="&#xe975;" glyph-name="light-rain" horiz-adv-x="971" d="M485.517 956.162c-74.508 0-149.266-27.948-206.008-83.463-38.73-37.896-63.558-84.094-75.862-132.62-115.489-20.773-203.648-119.129-203.648-237.855 0-133.721 111.486-242.804 248.153-242.804h507.096c118.985 0 215.785 94.714 215.785 211.134 0 109.875-86.51 199.322-196.23 209.154-2.161 70.044-28.752 139.635-83.28 192.99-56.74 55.516-131.499 83.463-206.008 83.463zM485.517 892.822c58.032 0 115.77-21.234 160.153-64.66 49.146-48.089 70.715-112.735 65.41-175.505-0.755-8.846 2.319-17.597 8.472-24.12s14.823-10.22 23.895-10.19h11.801c84.241 0 151.050-65.368 151.050-147.793s-66.808-147.794-151.050-147.794h-507.096c-101.681 0-183.418 79.975-183.418 179.464 0 94.421 73.997 171.534 168.245 179.135 14.809 1.168 26.904 12.051 29.333 26.392 7.474 44.168 28.238 86.35 63.050 120.412 44.384 43.426 102.122 64.66 160.153 64.66zM288.95 225.44c-10.365-0.718-20.038-6.368-25.625-15.835l-107.893-182.762c-8.938-15.148-3.68-34.472 11.801-43.217 15.482-8.746 35.23-3.601 44.169 11.547l107.893 182.762c8.938 15.148 3.681 34.472-11.801 43.217-5.805 3.28-12.325 4.719-18.544 4.288zM506.421 225.44c-10.365-0.718-20.375-6.368-25.962-15.835l-129.471-219.381c-8.938-15.148-3.68-34.471 11.801-43.217s35.23-3.601 44.169 11.547l129.471 219.381c8.938 15.148 3.681 34.472-11.801 43.217-5.805 3.28-11.988 4.719-18.207 4.288zM722.207 225.44c-10.365-0.718-20.375-6.368-25.962-15.835l-107.893-182.762c-8.938-15.148-3.68-34.472 11.801-43.217s35.23-3.601 44.169 11.547l107.893 182.762c8.938 15.148 3.681 34.472-11.801 43.217-5.805 3.28-11.988 4.719-18.207 4.288z" />
<glyph unicode="&#xe976;" horiz-adv-x="1101" d="M246.572 955.24l705.002-284.839c33.137-13.388 49.147-51.105 35.759-84.242l-157.571-390.001c-13.388-33.137-51.105-49.147-84.242-35.759l-705.002 284.839c-33.137 13.388-49.147 51.105-35.759 84.242l157.571 390.001c13.388 33.137 51.105 49.147 84.242 35.759z" />
<glyph unicode="&#xe977;" horiz-adv-x="1101" d="M1089.781 425.775c-2.904 6.944-8.425 12.465-15.369 15.369l-740.308 309.648c-6.929 2.898-14.726 2.924-21.674 0.071s-12.478-8.348-15.373-15.279l-184.915-441.823c-2.898-6.929-2.924-14.726-0.072-21.674s8.348-12.478 15.279-15.373l740.47-309.648c6.954-2.807 14.725-2.807 21.679 0 6.963 2.79 12.505 8.274 15.369 15.207l184.753 441.823c2.876 6.929 2.934 14.707 0.162 21.679zM460.293 445.997l-269.526-110.981 131.528 314.178zM375.034 672.49l614.766-257.231-391.347-72.316zM492.811 397.463l69.242-101.598c6.312-9.333 17.558-14.035 28.635-11.972l121.012 22.326 114.864-280.851-614.281 257.231zM767.838 316.573l242.671 44.651-131.528-314.016z" />
<glyph unicode="&#xe978;" horiz-adv-x="1101" d="M452.268-64h-346.372c-15.636 0-28.312 12.676-28.312 28.312s12.676 28.312 28.312 28.312h346.372c15.636 0 28.312-12.676 28.312-28.312s-12.676-28.312-28.312-28.312z" />
<glyph unicode="&#xe979;" horiz-adv-x="1101" d="M300.842 65.424h-194.946c-15.636 0-28.312 12.676-28.312 28.312s12.676 28.312 28.312 28.312h194.946c15.636 0 28.312-12.676 28.312-28.312s-12.676-28.312-28.312-28.312z" />
<glyph unicode="&#xe97a;" horiz-adv-x="1101" d="M319.94 757.036c-19.967-0.181-36.084-16.41-36.084-36.403 0-7.062 2.011-13.655 5.492-19.237l-0.089 0.154 258.849-420.629c6.518-10.461 17.959-17.321 31.001-17.321 2.935 0 5.789 0.347 8.523 1.003l-0.248-0.050 485.342 113.246c16.247 3.883 28.14 18.28 28.14 35.454 0 15.095-9.188 28.044-22.276 33.561l-0.239 0.090-744.191 307.383c-4.103 1.74-8.874 2.751-13.882 2.751-0.119 0-0.237-0.001-0.355-0.002h0.018zM410.056 644.138l535.614-221.216-349.313-81.522z" />
<glyph unicode="&#xe97b;" glyph-name="menu" horiz-adv-x="1469" d="M70.161 960c-0.291 0.004-0.634 0.007-0.978 0.007-38.215 0-69.195-30.98-69.195-69.195s30.98-69.195 69.195-69.195c0.344 0 0.687 0.003 1.030 0.008l-0.052-0.001h1328.415c0.291-0.004 0.634-0.007 0.978-0.007 38.215 0 69.195 30.98 69.195 69.195s-30.98 69.195-69.195 69.195c-0.344 0-0.687-0.003-1.030-0.008l0.052 0.001zM70.161 517.195c-0.291 0.004-0.634 0.007-0.978 0.007-38.215 0-69.195-30.98-69.195-69.195s30.98-69.195 69.195-69.195c0.344 0 0.687 0.003 1.030 0.008l-0.052-0.001h1328.415c0.291-0.004 0.634-0.007 0.978-0.007 38.215 0 69.195 30.98 69.195 69.195s-30.98 69.195-69.195 69.195c-0.344 0-0.687-0.003-1.030-0.008l0.052 0.001zM70.161 74.39c-0.291 0.004-0.634 0.007-0.978 0.007-38.215 0-69.195-30.98-69.195-69.195s30.98-69.195 69.195-69.195c0.344 0 0.687 0.003 1.030 0.008l-0.052-0.001h1328.415c0.291-0.004 0.634-0.007 0.978-0.007 38.215 0 69.195 30.98 69.195 69.195s-30.98 69.195-69.195 69.195c-0.344 0-0.687-0.003-1.030-0.008l0.052 0.001z" />
<glyph unicode="&#xe97c;" glyph-name="minus-dark" horiz-adv-x="11277" d="M519.221 959.949c-2.147 0.032-4.682 0.051-7.221 0.051-282.77 0-512-229.23-512-512s229.23-512 512-512c2.539 0 5.073 0.018 7.603 0.055l-0.382-0.004h10238.972c2.147-0.032 4.682-0.051 7.221-0.051 282.77 0 512 229.23 512 512s-229.23 512-512 512c-2.539 0-5.073-0.018-7.603-0.055l0.382 0.004z" />
<glyph unicode="&#xe97d;" glyph-name="mouthfeel" horiz-adv-x="1198" d="M1171.139 960h-1144.737c-14.58 0-26.402-12.342-26.402-27.564s11.821-27.564 26.402-27.564h247.041c-0.63-59.587 6.877-233.787 108.31-347.156 58.378-65.246 137.498-98.761 235.149-99.814 0.321-0.015 0.63-0.1 0.952-0.1 0.63 0 1.247 0.042 1.877 0.042s1.247-0.042 1.877-0.042c0.321 0 0.63 0.089 0.953 0.1 97.651 1.053 176.772 34.568 235.149 99.814 101.433 113.369 108.94 287.569 108.31 347.156h205.134c14.581 0 26.402 12.341 26.402 27.564-0.014 15.222-11.835 27.564-26.416 27.564zM819.108 595.34c-48.559-54.279-115.649-81.96-199.392-82.369-83.645 0.409-150.678 28.032-199.224 82.194-88.043 98.22-94.514 257.914-94.149 309.693h267.223v-313.276c0-15.222 11.821-27.564 26.402-27.564s26.402 12.342 26.402 27.564v313.29h266.761c0.434-51.676-5.855-210.99-94.023-309.532zM606.398 357.601c-7.845-0.009-14.777-3.915-18.964-9.885l-0.049-0.074c0 0-65.629-93.527-98.765-191.268-16.568-48.87-26.422-99.66-10.563-143.96 7.929-22.15 23.332-42.091 45.799-55.381s51.074-20.275 86.542-21.051c0.157-0.004 0.342-0.006 0.528-0.006s0.371 0.002 0.555 0.007l-0.027-0.001c35.097 0.772 63.451 7.765 85.637 21.126s37.277 33.378 44.893 55.532c15.233 44.308 4.986 94.977-11.846 143.809-33.664 97.665-99.369 191.192-99.369 191.192-4.237 6.045-11.168 9.95-19.012 9.959h-0.001zM609.114 294.902c18.509-28.616 53.74-85.521 77.186-153.542 15.259-44.269 20.985-87.045 11.846-113.629-4.57-13.292-11.795-22.998-24.974-30.935-13.067-7.869-33.167-13.53-62.247-14.26-29.527 0.736-50.094 6.388-63.53 14.336-13.549 8.014-20.968 17.863-25.729 31.161-9.521 26.596-4.128 69.252 10.865 113.478 23.043 67.969 58.142 124.797 76.583 153.391z" />
<glyph unicode="&#xe97e;" horiz-adv-x="1004" d="M1003.918 521.226c0-242.328-196.446-438.774-438.774-438.774s-438.774 196.446-438.774 438.774c0 242.328 196.446 438.774 438.774 438.774s438.774-196.446 438.774-438.774z" />
<glyph unicode="&#xe97f;" horiz-adv-x="1004" d="M469.699 287.803v-167.202c0-2.752 0.687-4.817 1.373-6.881l37.080-78.44c0 0 0-0.688 0.687-0.688 2.747-4.817 0.687-8.257 0-9.633s-3.433-4.817-8.927-4.817h-168.918c-7.553 0-14.42-5.505-16.48-13.073-4.12-19.266-21.286-33.028-41.199-33.028s-36.393 13.761-41.199 33.028c-2.060 7.569-8.24 13.073-16.48 13.073h-168.231c-5.493 0-7.553 3.44-8.927 4.817-0.687 1.376-2.747 5.505 0 9.633 0 0 0.687 0.688 0.687 0.688l37.080 77.752c1.373 2.064 1.373 4.817 1.373 6.881v185.092c0 103.211 56.306 181.651 142.825 198.853 5.493 1.376 9.613 4.817 11.673 9.633l23.346 54.358c0 0 0 0.688 0 0.688h37.080c0 0 0-0.688 0-0.688l23.346-55.046c2.060-4.817 6.18-8.257 11.673-9.633 2.060-0.688 4.807-1.376 6.867-2.064 3.433 11.009 8.24 21.33 13.733 30.963-2.060 0.688-3.433 1.376-5.493 1.376l-17.166 46.101c-3.433 13.073-15.106 22.018-28.84 22.018h-41.886c-13.733 0-25.406-8.945-28.84-22.018l-19.226-45.413c-98.192-24.083-161.365-112.844-161.365-229.817v-180.963l-35.706-73.624c-7.553-13.761-6.867-29.587 0.687-42.661s21.973-21.33 37.080-21.33h157.245c11.673-27.523 38.453-45.413 69.352-45.413s57.679 17.89 69.352 45.413h157.245c15.793 0 29.526 8.257 37.080 21.33s8.24 28.899 0.687 42.661l-35.020 74.312v163.073c-4.12 0-8.24-0.688-12.36-0.688-7.553 0-14.42 0.688-21.286 1.376z" />
<glyph unicode="&#xe980;" horiz-adv-x="1004" d="M465.579 541.779c-50.9 0-92.012-41.231-92.012-92.278s41.112-92.278 92.012-92.278c50.9 0 92.012 41.231 92.012 92.278s-41.601 92.278-92.012 92.278z" />
<glyph unicode="&#xe981;" glyph-name="off" horiz-adv-x="578" d="M65.957 959.968c-36.411-0.010-65.924-29.529-65.924-65.942 0-18.524 7.638-35.263 19.936-47.242l398.845-398.845-398.831-398.702c-12.504-12.019-20.271-28.885-20.271-47.566 0-36.419 29.523-65.942 65.942-65.942 18.681 0 35.547 7.768 47.545 20.25l0.021 0.022 445.449 445.32c11.966 11.939 19.369 28.446 19.369 46.683s-7.403 34.744-19.367 46.681l-445.45 445.321c-11.992 12.318-28.735 19.96-47.262 19.961v0z" />
<glyph unicode="&#xe982;" horiz-adv-x="825" d="M186.887 686.841c-14.905 0-26.987-12.083-26.987-26.987s12.083-26.987 26.987-26.987h448.441c14.905 0 26.987 12.083 26.987 26.987s-12.083 26.987-26.987 26.987v0z" />
<glyph unicode="&#xe983;" horiz-adv-x="825" d="M186.887 490.32c-0.413 0.023-0.895 0.035-1.381 0.035-14.894 0-26.968-12.074-26.968-26.968s12.074-26.968 26.968-26.968c0.486 0 0.969 0.013 1.448 0.038l-0.067-0.003h448.441c0.413-0.023 0.895-0.035 1.381-0.035 14.894 0 26.968 12.074 26.968 26.968s-12.074 26.968-26.968 26.968c-0.486 0-0.969-0.013-1.448-0.038l0.067 0.003z" />
<glyph unicode="&#xe984;" horiz-adv-x="825" d="M186.887 293.908c-14.905 0-26.987-12.083-26.987-26.987s12.083-26.987 26.987-26.987h448.441c14.905 0 26.987 12.083 26.987 26.987s-12.083 26.987-26.987 26.987v0z" />
<glyph unicode="&#xe985;" horiz-adv-x="825" d="M637.554 176.543c-0.010 0-0.022 0-0.034 0-13.378 0-24.228-10.824-24.271-24.192v-192.036h48.501v167.727h139.262v48.501z" />
<glyph unicode="&#xe986;" horiz-adv-x="825" d="M24.233 896.938c-13.372-0.043-24.196-10.893-24.196-24.271 0-0.012 0-0.024 0-0.036v0.002-912.318c0-0.010 0-0.022 0-0.034 0-13.378 10.824-24.228 24.192-24.271h605.005c0.008 0 0.016 0 0.025 0 6.868 0 13.069 2.852 17.485 7.437l0.007 0.008 171.778 178.347c4.2 4.357 6.788 10.294 6.788 16.835 0 0.009 0 0.018 0 0.026v-0.001 733.971c0 0.010 0 0.022 0 0.034 0 13.405-10.867 24.271-24.271 24.271-0.012 0-0.024 0-0.036 0h0.002zM48.538 848.437h728.278v-700.032l-157.874-163.895h-570.404z" />
<glyph unicode="&#xe987;" horiz-adv-x="825" d="M261.554 960c-46.162 0-84.083-37.921-84.083-84.083s37.921-84.083 84.083-84.083h291.552c46.162 0 84.083 37.921 84.083 84.083s-37.921 84.083-84.083 84.083zM261.554 911.499h291.552c20.112 0 35.472-15.47 35.472-35.582s-15.361-35.582-35.472-35.582h-291.552c-20.112 0-35.472 15.47-35.472 35.582s15.361 35.582 35.472 35.582z" />
<glyph unicode="&#xe988;" horiz-adv-x="825" d="M263.663 906.138h288.911c16.167 0 29.273-13.106 29.273-29.273v0c0-16.167-13.106-29.273-29.273-29.273h-288.911c-16.167 0-29.273 13.106-29.273 29.273v0c0 16.167 13.106 29.273 29.273 29.273z" />
<glyph unicode="&#xe989;" horiz-adv-x="1461" d="M1461.073 516.683c0-244.837-198.48-443.317-443.317-443.317s-443.317 198.48-443.317 443.317c0 244.837 198.48 443.317 443.317 443.317s443.317-198.48 443.317-443.317z" />
<glyph unicode="&#xe98a;" horiz-adv-x="1461" d="M247.296 552.957c-12.37 0-22.397-9.984-22.397-22.3s10.027-22.3 22.397-22.3h86.32l76.988-361.672c3.046-13.615 12.008-24.946 23.33-24.855h373.277c11.832-0.164 22.715 10.517 22.715 22.3s-10.883 22.466-22.715 22.3h-355.080l-9.566 44.599h394.507c10.028 0.075 19.502 7.679 21.696 17.421l52.259 222.997c2.912 12.942-8.376 27.083-21.696 27.178h-503.457l-12.132 56.678c-2.119 9.902-11.762 17.664-21.93 17.654zM395.207 434.025h465.896l-41.761-178.397h-386.109zM516.056 92.098c-40.966 0-74.655-33.543-74.655-74.332s33.69-74.332 74.655-74.332c40.966 0 74.655 33.544 74.655 74.332s-33.69 74.332-74.655 74.332zM725.090 92.098c-40.966 0-74.655-33.543-74.655-74.332s33.69-74.332 74.655-74.332c40.966 0 74.655 33.544 74.655 74.332s-33.69 74.332-74.655 74.332zM516.056 47.499c16.758 0 29.862-13.048 29.862-29.733s-13.104-29.733-29.862-29.733c-16.756 0-29.862 13.048-29.862 29.733s13.106 29.733 29.862 29.733zM725.090 47.499c16.758 0 29.862-13.048 29.862-29.733s-13.104-29.733-29.862-29.733c-16.756 0-29.862 13.048-29.862 29.733s13.106 29.733 29.862 29.733z" />
<glyph unicode="&#xe98b;" horiz-adv-x="1461" d="M0 385.561c-0.079 0.001-0.172 0.002-0.265 0.002-10.346 0-18.734-8.387-18.734-18.734s8.387-18.734 18.734-18.734c0.093 0 0.186 0.001 0.279 0.002h224.766c0.079-0.001 0.172-0.002 0.265-0.002 10.346 0 18.734 8.387 18.734 18.734s-8.387 18.734-18.734 18.734c-0.093 0-0.186-0.001-0.279-0.002h0.014z" />
<glyph unicode="&#xe98c;" horiz-adv-x="1461" d="M74.927 310.634c-0.079 0.001-0.172 0.002-0.265 0.002-10.346 0-18.734-8.387-18.734-18.734s8.387-18.734 18.734-18.734c0.093 0 0.186 0.001 0.279 0.002h224.766c0.079-0.001 0.172-0.002 0.265-0.002 10.346 0 18.734 8.387 18.734 18.734s-8.387 18.734-18.734 18.734c-0.093 0-0.186-0.001-0.279-0.002h0.014z" />
<glyph unicode="&#xe98d;" horiz-adv-x="1491" d="M1490.895 513.441c0-246.628-199.931-446.559-446.559-446.559s-446.559 199.931-446.559 446.559c0 246.628 199.931 446.559 446.559 446.559s446.559-199.931 446.559-446.559z" />
<glyph unicode="&#xe98e;" horiz-adv-x="1491" d="M268.242 549.98c-12.46 0-22.56-10.057-22.56-22.463s10.1-22.463 22.56-22.463h86.951l77.551-364.317c3.068-13.714 12.095-25.128 23.5-25.037h376.006c11.919-0.165 22.882 10.594 22.882 22.463s-10.963 22.63-22.882 22.463h-357.676l-9.636 44.925h397.392c10.101 0.075 19.645 7.735 21.855 17.549l52.641 224.627c2.934 13.036-8.438 27.281-21.855 27.376h-507.139l-12.22 57.093c-2.135 9.974-11.848 17.793-22.090 17.783zM417.235 430.179h469.303l-42.066-179.702h-388.932zM538.967 85.751c-41.265 0-75.201-33.788-75.201-74.876s33.936-74.876 75.201-74.876c41.265 0 75.201 33.789 75.201 74.876s-33.936 74.876-75.201 74.876zM749.53 85.751c-41.265 0-75.201-33.788-75.201-74.876s33.936-74.876 75.201-74.876c41.265 0 75.201 33.789 75.201 74.876s-33.936 74.876-75.201 74.876zM538.967 40.826c16.88 0 30.081-13.143 30.081-29.95s-13.2-29.95-30.081-29.95c-16.879 0-30.081 13.144-30.081 29.95s13.202 29.95 30.081 29.95zM749.53 40.826c16.88 0 30.081-13.143 30.081-29.95s-13.2-29.95-30.081-29.95c-16.879 0-30.081 13.144-30.081 29.95s13.202 29.95 30.081 29.95z" />
<glyph unicode="&#xe98f;" horiz-adv-x="1491" d="M19.137 381.36c-0.079 0.001-0.173 0.002-0.267 0.002-10.422 0-18.871-8.449-18.871-18.871s8.449-18.871 18.871-18.871c0.094 0 0.187 0.001 0.281 0.002h226.41c0.079-0.001 0.173-0.002 0.267-0.002 10.422 0 18.871 8.449 18.871 18.871s-8.449 18.871-18.871 18.871c-0.094 0-0.187-0.001-0.281-0.002h0.014z" />
<glyph unicode="&#xe990;" horiz-adv-x="1491" d="M94.612 305.886c-0.079 0.001-0.173 0.002-0.267 0.002-10.422 0-18.871-8.449-18.871-18.871s8.449-18.871 18.871-18.871c0.094 0 0.187 0.001 0.281 0.002h226.41c0.079-0.001 0.173-0.002 0.267-0.002 10.422 0 18.871 8.449 18.871 18.871s-8.449 18.871-18.871 18.871c-0.094 0-0.187-0.001-0.281-0.002h0.014z" />
<glyph unicode="&#xe991;" glyph-name="oval" d="M1024 448c0-282.77-229.23-512-512-512s-512 229.23-512 512c0 282.77 229.23 512 512 512s512-229.23 512-512z" />
<glyph unicode="&#xe992;" horiz-adv-x="1078" d="M152.544 251.983l163.389 708.017c242.051 0 425.119-66.572 549.167-199.697s195.159-302.577 213.313-508.32l-689.863-199.697z" />
<glyph unicode="&#xe993;" horiz-adv-x="1078" d="M865.1 307.571c0-13.16-10.668-23.827-23.827-23.827s-23.827 10.668-23.827 23.827c0 223.715-181.361 405.077-405.077 405.077-13.16 0-23.827 10.668-23.827 23.827s10.668 23.827 23.827 23.827c250.039 0 452.732-202.693 452.732-452.732z" />
<glyph unicode="&#xe994;" horiz-adv-x="1078" d="M722.135 305.302c0-13.16-10.668-23.827-23.827-23.827s-23.827 10.668-23.827 23.827c0 144.762-117.349 262.112-262.112 262.112-13.16 0-23.827 10.668-23.827 23.827s10.668 23.827 23.827 23.827c171.086 0 309.767-138.699 309.767-309.767z" />
<glyph unicode="&#xe995;" horiz-adv-x="1078" d="M115.030 621.415c-16.46 0.025-31.512-8.026-43.046-19.36v-0.036h-0.035c-5.047-4.974-10.164-11.021-15.956-18.367-2.457-3.092-4.91-6.308-7.411-9.68-8.701-11.707-17.005-23.658-24.962-35.883-23.77-34.764-30.543-83.922-15.991-124.314 1.187-4.215 2.946-10.125 6.063-19.147 5.735-16.761 12.953-35.258 21.806-55.172 26.561-59.932 60.67-116.192 101.515-167.466 28.915-36.325 61.501-69.592 97.225-99.246 47.271-39.16 99.193-72.385 154.56-98.891 0 0 0.036 0 0.036 0s0.036-0.036 0.036-0.036c18.375-8.847 35.504-16.167 50.953-22.019 8.522-3.248 14.55-5.235 19.324-6.772 38.955-14.945 88.236-11.126 124.74 9.928 14.263 7.804 28.346 15.982 42.195 24.501 3.417 2.099 6.751 4.159 9.964 6.241l0.071 0.071c12.772 8.198 21.551 14.035 28.969 21.523 11.655 11.761 20.823 28.403 19.395 46.591-1.428 18.199-11.548 33.319-25.6 47.478-23.812 23.992-54.28 54.426-84.885 84.744-11.493 11.393-26.49 19.56-42.975 19.573s-31.527-8.131-43.010-19.502l-66.697-66.342c-2.128-2.12-9.958-3.355-11.772-2.588l-0.213 0.107-0.213 0.071c-9.939 3.976-19.742 8.346-29.359 13.048l-0.071 0.036-0.107 0.036c-22.281 10.657-43.789 22.883-64.356 36.557-17.887 12.022-33.642 24.506-46.839 37.372v0.036c-14.45 14.078-28.755 32.411-42.478 54.214l-0.036 0.071c-12.161 19.483-23.082 39.721-32.656 60.597l-0.036 0.107-0.036 0.071c-4.185 8.957-8.074 18.051-11.663 27.266l-0.036 0.142-0.071 0.107c-0.838 2.084 0.619 9.124 2.872 11.382l64.782 64.817c11.699 11.771 20.467 26.863 20.424 43.967s-8.852 32.182-20.601 44.038c-20.655 20.834-77.213 77.405-90.772 90.699-11.557 11.346-26.586 19.405-43.046 19.431z" />
<glyph unicode="&#xe996;" horiz-adv-x="1138" d="M897.58 511.21c0-247.86-200.93-448.79-448.79-448.79s-448.79 200.93-448.79 448.79c0 247.86 200.93 448.79 448.79 448.79s448.79-200.93 448.79-448.79z" />
<glyph unicode="&#xe997;" horiz-adv-x="1138" d="M766.872 195.121c9.087 9.050 9.087 9.050 20 19.911 10.125 10.074 18.088 17.989 23.167 23.022 26.014 25.785 60.963 25.788 87.026-0.037 23.56-23.346 47.425-47.199 71.707-71.663 26.359-26.562 26.189-61.534-0.265-88.231-5.216-5.264-13.646-11.44-25.098-18.814-2.541-1.636-5.211-3.316-7.995-5.034-7.491-4.621-15.48-9.316-23.465-13.852-4.791-2.722-8.53-4.794-10.337-5.77-29.631-17.092-77.562-20.777-108.324-8.886-3.087 0.94-8.577 2.805-16.128 5.674-12.413 4.716-26.201 10.593-41.021 17.713-42.262 20.301-84.506 46.535-123.986 79.379-15.857 13.192-30.974 27.233-45.243 42.151-11.511 12.034-22.452 24.572-32.836 37.56-34.185 42.759-61.024 88.512-81.377 134.281-7.136 16.048-12.959 30.975-17.573 44.413-2.805 8.17-4.602 14.105-5.058 16.057-11.635 32.041-5.071 80.042 14.289 108.369 1.198 1.854 3.293 5.027 6.049 9.086 4.592 6.763 9.365 13.531 14.097 19.885 2.055 2.759 4.063 5.387 6.016 7.865 5.025 6.376 9.593 11.654 13.717 15.712 26.056 25.625 60.936 25.589 87.037-0.040 10.354-10.161 55.054-54.892 71.228-71.205 26.877-27.129 26.939-61.673 0.090-88.654-3.921-3.942-12.437-12.475-24.185-24.236-9.977-9.987-9.977-9.987-18.267-18.283-3.229-3.231-4.886-4.889-5.927-5.931 1.686-4.173 4.201-10.045 7.479-17.142 7.251-15.699 15.549-31.389 24.71-45.945 10.071-16.001 20.556-29.592 31.216-39.985 9.805-9.559 21.517-18.825 34.732-27.697 15.445-10.369 32.088-19.655 48.738-27.685 7.949-3.834 14.445-6.703 19.117-8.63 1.13 1.126 2.946 2.935 6.668 6.642zM945.218 142.978c-24.217 24.398-48.018 48.186-71.511 71.466-13.127 13.006-27.227 13.005-40.309 0.039-5.059-5.013-13.010-12.916-23.060-22.916-10.965-10.913-10.965-10.913-20.049-19.959-7.265-7.237-7.265-7.237-9.081-9.046-7.756-7.727-20.622-10.189-30.249-6.128-5.004 1.941-13.48 5.571-24.29 10.785-17.971 8.668-35.95 18.699-52.818 30.023-14.785 9.926-28.045 20.416-39.402 31.488-12.745 12.426-24.773 28.017-36.135 46.069-9.994 15.879-18.942 32.797-26.752 49.706-4.695 10.165-7.994 18.132-9.651 22.524-3.957 9.875-0.965 22.195 6.465 29.629 1.657 1.658 1.657 1.658 8.288 8.293 8.288 8.294 8.288 8.294 18.233 18.249 11.757 11.771 20.266 20.296 24.166 24.217 13.958 14.027 13.934 27.688-0.135 41.889-16.069 16.208-60.685 60.854-70.905 70.884-13.203 12.965-27.386 12.979-40.518 0.064-2.964-2.916-6.69-7.221-10.925-12.595-1.757-2.229-3.583-4.618-5.464-7.145-4.412-5.925-8.917-12.312-13.257-18.704-2.603-3.834-4.561-6.8-5.867-8.81-13.64-19.965-18.678-56.801-10.3-80.056 0.697-2.608 2.272-7.809 4.819-15.229 4.307-12.546 9.779-26.572 16.508-41.705 19.263-43.318 44.683-86.653 76.974-127.043 9.78-12.233 20.075-24.031 30.897-35.344 13.382-13.99 27.578-27.176 42.486-39.579 37.24-30.981 77.195-55.793 117.131-74.977 13.949-6.701 26.877-12.211 38.438-16.604 6.834-2.596 11.619-4.222 15.139-5.339 22.552-8.683 60.006-5.804 81.311 6.479 2.001 1.088 5.564 3.062 10.161 5.674 7.663 4.353 15.321 8.853 22.434 13.242 2.609 1.61 5.099 3.177 7.454 4.692 9.515 6.126 16.471 11.223 19.49 14.27 13.684 13.81 13.752 27.923 0.283 41.497z" />
<glyph unicode="&#xe998;" horiz-adv-x="1138" d="M1054.815 334.222c0-9.164-7.429-16.593-16.593-16.593s-16.593 7.429-16.593 16.593c0 155.785-126.289 282.074-282.074 282.074-9.164 0-16.593 7.429-16.593 16.593s7.429 16.593 16.593 16.593c174.113 0 315.259-141.146 315.259-315.259z" />
<glyph unicode="&#xe999;" horiz-adv-x="1138" d="M955.259 334.222c0-9.164-7.429-16.593-16.593-16.593s-16.593 7.429-16.593 16.593c0 100.802-81.716 182.519-182.519 182.519-9.164 0-16.593 7.429-16.593 16.593s7.429 16.593 16.593 16.593c119.13 0 215.704-96.574 215.704-215.704z" />
<glyph unicode="&#xe99a;" horiz-adv-x="1138" d="M897.58 511.21c0-247.86-200.93-448.79-448.79-448.79s-448.79 200.93-448.79 448.79c0 247.86 200.93 448.79 448.79 448.79s448.79-200.93 448.79-448.79z" />
<glyph unicode="&#xe99b;" horiz-adv-x="1138" d="M766.872 195.121c9.087 9.050 9.087 9.050 20 19.911 10.125 10.074 18.088 17.989 23.167 23.022 26.014 25.785 60.963 25.788 87.026-0.037 23.56-23.346 47.425-47.199 71.707-71.663 26.359-26.562 26.189-61.534-0.265-88.231-5.216-5.264-13.646-11.44-25.098-18.814-2.541-1.636-5.211-3.316-7.995-5.034-7.491-4.621-15.48-9.316-23.465-13.852-4.791-2.722-8.53-4.794-10.337-5.77-29.631-17.092-77.562-20.777-108.324-8.886-3.087 0.94-8.577 2.805-16.128 5.674-12.413 4.716-26.201 10.593-41.021 17.713-42.262 20.301-84.506 46.535-123.986 79.379-15.857 13.192-30.974 27.233-45.243 42.151-11.511 12.034-22.452 24.572-32.836 37.56-34.185 42.759-61.024 88.512-81.377 134.281-7.136 16.048-12.959 30.975-17.573 44.413-2.805 8.17-4.602 14.105-5.058 16.057-11.635 32.041-5.071 80.042 14.289 108.369 1.198 1.854 3.293 5.027 6.049 9.086 4.592 6.763 9.365 13.531 14.097 19.885 2.055 2.759 4.063 5.387 6.016 7.865 5.025 6.376 9.593 11.654 13.717 15.712 26.056 25.625 60.936 25.589 87.037-0.040 10.354-10.161 55.054-54.892 71.228-71.205 26.877-27.129 26.939-61.673 0.090-88.654-3.921-3.942-12.437-12.475-24.185-24.236-9.977-9.987-9.977-9.987-18.267-18.283-3.229-3.231-4.886-4.889-5.927-5.931 1.686-4.173 4.201-10.045 7.479-17.142 7.251-15.699 15.549-31.389 24.71-45.945 10.071-16.001 20.556-29.592 31.216-39.985 9.805-9.559 21.517-18.825 34.732-27.697 15.445-10.369 32.088-19.655 48.738-27.685 7.949-3.834 14.445-6.703 19.117-8.63 1.13 1.126 2.946 2.935 6.668 6.642zM945.218 142.978c-24.217 24.398-48.018 48.186-71.511 71.466-13.127 13.006-27.227 13.005-40.309 0.039-5.059-5.013-13.010-12.916-23.060-22.916-10.965-10.913-10.965-10.913-20.049-19.959-7.265-7.237-7.265-7.237-9.081-9.046-7.756-7.727-20.622-10.189-30.249-6.128-5.004 1.941-13.48 5.571-24.29 10.785-17.971 8.668-35.95 18.699-52.818 30.023-14.785 9.926-28.045 20.416-39.402 31.488-12.745 12.426-24.773 28.017-36.135 46.069-9.994 15.879-18.942 32.797-26.752 49.706-4.695 10.165-7.994 18.132-9.651 22.524-3.957 9.875-0.965 22.195 6.465 29.629 1.657 1.658 1.657 1.658 8.288 8.293 8.288 8.294 8.288 8.294 18.233 18.249 11.757 11.771 20.266 20.296 24.166 24.217 13.958 14.027 13.934 27.688-0.135 41.889-16.069 16.208-60.685 60.854-70.905 70.884-13.203 12.965-27.386 12.979-40.518 0.064-2.964-2.916-6.69-7.221-10.925-12.595-1.757-2.229-3.583-4.618-5.464-7.145-4.412-5.925-8.917-12.312-13.257-18.704-2.603-3.834-4.561-6.8-5.867-8.81-13.64-19.965-18.678-56.801-10.3-80.056 0.697-2.608 2.272-7.809 4.819-15.229 4.307-12.546 9.779-26.572 16.508-41.705 19.263-43.318 44.683-86.653 76.974-127.043 9.78-12.233 20.075-24.031 30.897-35.344 13.382-13.99 27.578-27.176 42.486-39.579 37.24-30.981 77.195-55.793 117.131-74.977 13.949-6.701 26.877-12.211 38.438-16.604 6.834-2.596 11.619-4.222 15.139-5.339 22.552-8.683 60.006-5.804 81.311 6.479 2.001 1.088 5.564 3.062 10.161 5.674 7.663 4.353 15.321 8.853 22.434 13.242 2.609 1.61 5.099 3.177 7.454 4.692 9.515 6.126 16.471 11.223 19.49 14.27 13.684 13.81 13.752 27.923 0.283 41.497z" />
<glyph unicode="&#xe99c;" horiz-adv-x="1138" d="M1054.815 334.222c0-9.164-7.429-16.593-16.593-16.593s-16.593 7.429-16.593 16.593c0 155.785-126.289 282.074-282.074 282.074-9.164 0-16.593 7.429-16.593 16.593s7.429 16.593 16.593 16.593c174.113 0 315.259-141.146 315.259-315.259z" />
<glyph unicode="&#xe99d;" horiz-adv-x="1138" d="M955.259 334.222c0-9.164-7.429-16.593-16.593-16.593s-16.593 7.429-16.593 16.593c0 100.802-81.716 182.519-182.519 182.519-9.164 0-16.593 7.429-16.593 16.593s7.429 16.593 16.593 16.593c119.13 0 215.704-96.574 215.704-215.704z" />
<glyph unicode="&#xe99e;" glyph-name="plus-dark" d="M511.338 960c-25.401-0.359-45.854-21.033-45.854-46.486 0-0.223 0.002-0.446 0.005-0.669v0.034-418.367h-418.367c-0.195 0.003-0.426 0.005-0.657 0.005-25.676 0-46.49-20.814-46.49-46.49s20.814-46.49 46.49-46.49c0.231 0 0.462 0.002 0.692 0.005h418.332v-418.367c-0.003-0.195-0.005-0.426-0.005-0.657 0-25.676 20.814-46.49 46.49-46.49s46.49 20.814 46.49 46.49c0 0.231-0.002 0.462-0.005 0.692v-0.035 418.367h418.367c0.195-0.003 0.426-0.005 0.657-0.005 25.676 0 46.49 20.814 46.49 46.49s-20.814 46.49-46.49 46.49c-0.231 0-0.462-0.002-0.692-0.005h-418.332v418.367c0.003 0.189 0.004 0.412 0.004 0.635 0 25.676-20.814 46.49-46.49 46.49-0.223 0-0.446-0.002-0.669-0.005h0.034z" />
<glyph unicode="&#xe99f;" horiz-adv-x="823" d="M712.784 292.392c0-196.83-159.562-356.392-356.392-356.392s-356.392 159.562-356.392 356.392c0 196.83 159.562 356.392 356.392 356.392s356.392-159.562 356.392-356.392z" />
<glyph unicode="&#xe9a0;" horiz-adv-x="823" d="M558.462 595.318l-33.4 56.398-82.961-140.127h290.365l-110.608 196.176zM490.955 539.608l34.108 57.64 17.662-29.826-15.677-27.814zM558.888 539.608l62.97 111.677 62.951-111.677z" />
<glyph unicode="&#xe9a1;" horiz-adv-x="823" d="M794.687 847.902h-27.647v28.019h-27.647v84.078h-27.668v-84.078h-27.647v-28.019h-193.57v28.019h-27.668v84.078h-27.647v-84.078h-27.647v-28.019h-55.315v-560.53h470.122v560.53zM711.726 847.902h27.668v-28.030h-27.668zM435.195 847.902h27.647v-28.030h-27.647zM794.687 315.413h-414.807v504.46h27.668v-28.030h82.961v28.030h193.57v-28.030h82.961v28.030h27.647z" />
<glyph unicode="&#xe9a2;" horiz-adv-x="823" d="M642.598 399.491h-110.608c-7.636 0-13.834-6.281-13.834-14.020s6.197-14.020 13.834-14.020h110.608c7.636 0 13.834 6.281 13.834 14.020s-6.197 14.020-13.834 14.020z" />
<glyph unicode="&#xe9a3;" horiz-adv-x="823" d="M697.913 455.529h-221.237c-7.636 0-13.834-6.281-13.834-13.999 0-7.759 6.197-14.020 13.834-14.020h221.237c7.636 0 13.813 6.261 13.813 14.020 0 7.718-6.177 13.999-13.813 13.999z" />
<glyph unicode="&#xe9a4;" glyph-name="product-description" d="M512 960c-282.537 0-512-229.463-512-512s229.463-512 512-512c282.537 0 512 229.463 512 512s-229.463 512-512 512zM512 920.615c261.252 0 472.615-211.364 472.615-472.615s-211.364-472.615-472.615-472.615c-261.252 0-472.615 211.364-472.615 472.615s211.364 472.615 472.615 472.615zM506.661 715.978c-7.753-0.863-13.571-7.578-13.403-15.473v-60.939c-0.077-5.494 2.775-10.604 7.462-13.374s10.485-2.77 15.173 0c4.688 2.77 7.539 7.88 7.462 13.374v60.939c0.093 4.388-1.687 8.603-4.884 11.566s-7.502 4.387-11.811 3.907zM340.653 685.508c-5.019-0.651-9.38-3.812-11.605-8.413s-2.017-10.026 0.553-14.439l30.098-53.321c2.644-4.766 7.6-7.742 13-7.804s10.422 2.797 13.173 7.501c2.751 4.704 2.813 10.537 0.163 15.3l-30.098 53.321c-2.98 5.587-9.070 8.717-15.284 7.855zM672.435 685.508c-4.962-0.486-9.365-3.427-11.757-7.855l-30.098-53.321c-2.647-4.763-2.583-10.593 0.167-15.294s7.771-7.56 13.169-7.499c5.398 0.061 10.353 3.034 12.999 7.797l30.098 53.321c2.871 4.962 2.738 11.137-0.343 15.967s-8.587 7.493-14.235 6.885zM180.993 436.279c-4.924-5.733-4.924-14.262 0-19.995 16.775-19.236 34.727-38.414 54.317-54.987 4.156-3.505 9.846-4.494 14.92-2.593s8.756 6.402 9.656 11.802c0.9 5.4-1.119 10.875-5.295 14.357-14.446 12.222-27.992 26.844-41.385 41.657 54.559 59.118 120.926 101.816 194.225 122.591-34.781-29.405-56.904-73.716-56.904-123.068 0-49.593 22.299-93.759 57.374-123.068-35.893 9.933-70.26 24.933-102.286 44.752-4.584 3.064-10.454 3.357-15.313 0.763s-7.937-7.662-8.028-13.222c-0.093-5.56 2.816-10.73 7.587-13.487 65.281-40.4 139.745-63.081 218.445-63.081 127.246 0 242.691 60.545 327.314 157.584 4.924 5.733 4.924 14.262 0 19.995-84.625 97.090-200.016 157.584-327.314 157.584s-242.69-60.494-327.314-157.584zM508.307 556.014c70.824 0 127.681-58.272 127.681-129.971s-56.857-129.257-127.681-129.257c-70.824 0-127.916 57.558-127.916 129.257s57.092 129.971 127.916 129.971zM609.182 549.111c73.298-20.828 139.656-63.66 194.225-122.829-54.613-59.166-121.074-102.242-194.461-123.068 35.020 29.311 57.374 73.357 57.374 122.829 0 49.352-22.266 93.663-57.139 123.068zM508.307 487.22c-33.067 0-60.196-27.464-60.196-60.938s27.129-60.939 60.196-60.939c33.067 0 60.196 27.464 60.196 60.939s-27.129 60.938-60.196 60.938zM508.307 456.751c16.801 0 30.098-13.461 30.098-30.469s-13.297-30.47-30.098-30.47c-16.801 0-30.098 13.461-30.098 30.47s13.297 30.469 30.098 30.469z" />
<glyph unicode="&#xe9a5;" glyph-name="profile-filled" horiz-adv-x="1022" d="M507.554 960c-139.911 0-253.339-116.759-253.339-257.722s113.428-257.722 253.339-257.722c139.911 0 253.339 116.759 253.339 257.722s-113.428 257.722-253.339 257.722zM507.554 846.041c76.962 0 139.38-63.052 139.38-143.763s-62.418-143.763-139.38-143.763c-76.962 0-139.38 63.052-139.38 143.763s62.418 143.763 139.38 143.763zM487.518 376.056c-196.172-6.297-387.758-66.427-477.499-197.612l-10.018-14.777v-227.667h1021.746v229.796l-12.272 15.654c-116.735 149.185-325.783 200.903-521.956 194.606zM491.149 260.72c165.231 5.304 329.773-43.268 415.135-139.505v-69.753h-790.948v68.626c56.842 72.015 209.563 135.296 375.813 140.632z" />
<glyph unicode="&#xe9a6;" horiz-adv-x="1022" d="M507.841 927.008c-130.895 0-237.014-109.236-237.014-241.115s106.119-241.115 237.014-241.115c130.895 0 237.014 109.236 237.014 241.115s-106.119 241.115-237.014 241.115zM507.841 820.392c72.003 0 130.399-58.989 130.399-134.499s-58.396-134.499-130.399-134.499c-72.003 0-130.399 58.989-130.399 134.499s58.396 134.499 130.399 134.499z" />
<glyph unicode="&#xe9a7;" horiz-adv-x="1022" d="M489.095 380.692c-183.531-5.891-362.772-62.146-446.73-184.878l-9.373-13.825v-212.996h955.907v214.988l-11.482 14.645c-109.213 139.572-304.791 187.957-488.322 182.066zM492.493 272.788c154.583 4.962 308.523-40.48 388.385-130.516v-65.258h-739.981v64.204c53.179 67.374 196.059 126.578 351.597 131.57z" />
<glyph unicode="&#xe9a8;" horiz-adv-x="1022" d="M507.888 960c-149.25 0-270.053-124.576-270.053-274.154s120.803-274.037 270.053-274.037c149.25 0 269.936 124.459 269.936 274.037s-120.686 274.154-269.936 274.154zM507.888 894.039c112.54 0 203.975-94.012 203.975-208.193s-91.436-208.076-203.975-208.076c-112.54 0-204.092 93.895-204.092 208.076s91.553 208.193 204.092 208.193zM507.888 853.385c-90.022 0-163.438-75.018-163.438-167.538s73.416-167.421 163.438-167.421c90.022 0 163.321 74.901 163.321 167.421s-73.298 167.538-163.321 167.538zM507.888 787.424c53.984 0 97.36-43.076 97.36-101.578s-43.376-101.46-97.36-101.46c-53.984 0-97.477 42.959-97.477 101.46s43.493 101.578 97.477 101.578z" />
<glyph unicode="&#xe9a9;" horiz-adv-x="1022" d="M488.088 413.684c-189.574-6.085-379.313-62.374-472.974-199.289l-15.114-22.26v-256.111h1021.868v259.392l-18.511 23.549c-118.713 151.712-325.197 200.82-515.269 194.72zM490.197 347.723c176.99 5.681 361.545-41.982 461.258-169.413l4.452-5.741v-170.585h-889.946v169.882l3.632 5.272 0.117 0.12c74.304 108.46 243.070 164.77 420.487 170.465zM491.485 305.78c-163.249-5.24-311.273-61.551-376.434-144.107l-7.147-9.021v-108.607h805.942v110.716l-8.318 9.373c-90.171 101.658-252.302 146.838-414.043 141.646zM493.594 239.819c143.403 4.603 282.65-39.938 354.291-114.465v-15.348h-674.020v15.231c45.31 51.198 176.127 109.973 319.729 114.582z" />
<glyph unicode="&#xe9aa;" horiz-adv-x="1159" d="M956.632 414.316c0-264.167-214.149-478.316-478.316-478.316s-478.316 214.149-478.316 478.316c0 264.167 214.149 478.316 478.316 478.316s478.316-214.149 478.316-478.316z" />
<glyph unicode="&#xe9ab;" horiz-adv-x="1159" d="M938.102 628.571l-104.012 0.024v178.205c0 14.508-11.775 26.234-26.256 26.234s-26.256-11.733-26.256-26.234v-204.447c0-14.5 11.775-26.234 26.256-26.234h130.26c14.489 0 26.248 11.733 26.248 26.226-0.008 14.468-11.767 26.226-26.24 26.226z" />
</font>
</defs>
</svg>
